<?xml version="1.0" encoding="UTF-8" standalone="no"?>
<!-- Created with Inkscape (http://www.inkscape.org/) -->

<svg
   width="104.80449mm"
   height="106.8084mm"
   viewBox="0 0 104.80449 106.8084"
   version="1.1"
   id="svg1"
   xml:space="preserve"
   inkscape:version="1.3.2 (091e20e, 2023-11-25, custom)"
   sodipodi:docname="skull_icon.svg"
   xmlns:inkscape="http://www.inkscape.org/namespaces/inkscape"
   xmlns:sodipodi="http://sodipodi.sourceforge.net/DTD/sodipodi-0.dtd"
   xmlns="http://www.w3.org/2000/svg"
   xmlns:svg="http://www.w3.org/2000/svg"><sodipodi:namedview
     id="namedview1"
     pagecolor="#050505"
     bordercolor="#000000"
     borderopacity="0"
     inkscape:showpageshadow="2"
     inkscape:pageopacity="0.0"
     inkscape:pagecheckerboard="true"
     inkscape:deskcolor="#535353"
     inkscape:document-units="mm"
     inkscape:zoom="2"
     inkscape:cx="237.25"
     inkscape:cy="124.25"
     inkscape:window-width="2560"
     inkscape:window-height="1369"
     inkscape:window-x="1912"
     inkscape:window-y="-8"
     inkscape:window-maximized="1"
     inkscape:current-layer="layer2" /><defs
     id="defs1" /><g
     inkscape:groupmode="layer"
     id="layer2"
     inkscape:label="Layer 2"
     style="display:inline"
     transform="translate(-52.615784,-95.103972)"><g
       id="g22"
       inkscape:label="White"
       style="stroke:#000000;stroke-width:1.3;stroke-dasharray:none;stroke-opacity:1"><g
         id="g23"
         inkscape:label="Black"
         style="display:inline"><path
           style="display:none;fill:#000000;fill-opacity:1;stroke:#000000;stroke-width:1.3;stroke-linecap:round;stroke-linejoin:round;stroke-dasharray:none;stroke-opacity:1"
           d="m 83.554987,139.25831 0.886189,7.88076 0.886189,3.60805 0.221547,2.46867 7.469311,5.15889 c 0,0 8.830237,8.2289 9.051787,8.38715 0.22155,0.15824 6.89962,0.37979 6.89962,0.37979 l 8.45045,-6.99456 6.83631,-6.20333 0.18985,-2.59526 0.34815,-1.86734 0.79124,-2.27876 -0.6963,-5.44374 c 0,0 -2.31042,-3.19661 -3.86124,-2.69022 -0.21061,0.0688 -16.04636,-1.48753 -16.04636,-1.48753 z"
           id="path22"
           sodipodi:nodetypes="cccccscccccccscc" /></g><path
         style="fill:#ffffff;fill-opacity:1;stroke:#000000;stroke-width:4.91339;stroke-linecap:round;stroke-linejoin:round;stroke-dasharray:none;stroke-opacity:1"
         d="m 319.47671,447.05737 c -0.26312,-0.0507 -0.2695,-0.0898 -0.28483,-1.74811 -0.0462,-4.99116 0.0472,-15.19794 0.14514,-15.87132 0.17998,-1.23714 0.40182,-1.61745 1.23592,-2.11877 0.40039,-0.24064 0.88947,-0.5559 1.08685,-0.70056 0.19737,-0.14467 0.4695,-0.2965 0.60474,-0.3374 0.13523,-0.0409 0.60103,-0.30284 1.0351,-0.58209 1.03829,-0.66794 1.94604,-1.17083 2.59603,-1.43819 0.2902,-0.11937 0.67211,-0.3386 0.84869,-0.48719 0.17658,-0.14858 0.5851,-0.36913 0.90781,-0.49011 0.32272,-0.12097 0.79922,-0.37371 1.0589,-0.56163 0.25968,-0.18792 0.53199,-0.34167 0.60514,-0.34167 0.0731,0 0.45281,-0.19442 0.84369,-0.43205 0.39087,-0.23762 1.00668,-0.53539 1.36844,-0.6617 0.36177,-0.12632 0.85977,-0.36335 1.10667,-0.52674 0.2469,-0.16339 0.7047,-0.39789 1.01733,-0.52112 0.31262,-0.12323 0.76185,-0.33818 0.99827,-0.47767 0.23643,-0.1395 0.72071,-0.33895 1.07619,-0.44323 0.35548,-0.10428 0.91548,-0.33957 1.24443,-0.52285 0.32896,-0.18328 0.89417,-0.42698 1.25602,-0.54155 0.36185,-0.11457 0.92706,-0.3569 1.25602,-0.53851 0.32895,-0.18161 0.81342,-0.39683 1.07658,-0.47827 0.26317,-0.0814 0.74763,-0.29832 1.07659,-0.48197 0.32895,-0.18366 0.84003,-0.39819 1.13572,-0.47675 0.29569,-0.0786 0.75324,-0.25405 1.01677,-0.38999 1.283,-0.66183 10.71404,-3.80031 14.0561,-4.67762 0.62502,-0.16407 2.26681,-0.59757 3.64843,-0.96334 1.38161,-0.36577 3.14376,-0.77426 3.91589,-0.90775 0.77212,-0.13349 1.91933,-0.37664 2.54936,-0.54033 0.63003,-0.1637 1.98837,-0.40585 3.01853,-0.53812 1.03016,-0.13228 2.30526,-0.34743 2.83356,-0.47812 0.89896,-0.2224 3.60333,-0.56971 6.51502,-0.8367 0.69514,-0.0637 2.01751,-0.19406 2.93858,-0.28958 0.92108,-0.0955 2.84239,-0.21149 4.26957,-0.2577 2.25187,-0.0729 5.03852,0.006 5.33445,-0.0231 l 0.66725,-0.066 1.38505,7.91424 c -0.01,6.98015 0.0152,7.47914 -0.17785,7.8322 -0.29159,0.53329 -4.92379,0.77528 -8.00293,0.92255 -3.88339,0.18573 -5.14276,0.31108 -6.40669,0.6377 -0.62477,0.16146 -1.67424,0.35273 -2.33215,0.42505 -2.89948,0.31872 -3.41586,0.39461 -4.54558,0.6681 -1.12064,0.27129 -2.56045,0.53491 -3.94748,0.72275 -0.32896,0.0445 -0.97491,0.20685 -1.43545,0.36068 -0.46054,0.15382 -1.43988,0.36334 -2.17632,0.46559 -0.73643,0.10226 -1.67844,0.31322 -2.09336,0.4688 -0.41491,0.15559 -1.18502,0.37714 -1.71135,0.49234 -0.52633,0.1152 -1.1992,0.30974 -1.49526,0.43232 -0.29606,0.12259 -1.20593,0.38906 -2.02193,0.59215 -0.81599,0.2031 -1.64691,0.45371 -1.84648,0.55691 -0.19957,0.1032 -0.83752,0.31467 -1.41766,0.46993 -0.58015,0.15525 -1.25645,0.3829 -1.5029,0.50587 -0.24644,0.12297 -0.82488,0.3158 -1.28542,0.42851 -0.46054,0.11271 -1.06193,0.33586 -1.33642,0.4959 -0.27449,0.16003 -0.92181,0.39194 -1.43849,0.51535 -0.51667,0.1234 -1.26102,0.38534 -1.65409,0.58208 -0.39308,0.19673 -0.93,0.42546 -1.19317,0.50827 -0.26316,0.0828 -0.63997,0.24678 -0.83734,0.36438 -0.19738,0.1176 -0.70382,0.32626 -1.12543,0.4637 -0.42161,0.13744 -0.98682,0.37723 -1.25601,0.53287 -0.2692,0.15563 -0.78552,0.37929 -1.14737,0.49701 -0.36185,0.11772 -0.99882,0.39423 -1.41548,0.61445 -0.41666,0.22023 -0.82377,0.40041 -0.9047,0.40041 -0.0809,0 -0.49364,0.20763 -0.91713,0.46139 -0.42349,0.25376 -1.04954,0.55314 -1.39122,0.66528 -0.34168,0.11214 -0.75396,0.30829 -0.91617,0.43588 -0.16221,0.1276 -0.63627,0.39208 -1.05345,0.58774 -0.41718,0.19566 -1.13532,0.56547 -1.59586,0.8218 -0.46054,0.25632 -1.21415,0.6707 -1.67469,0.92083 -0.46054,0.25013 -0.99883,0.57403 -1.1962,0.71977 -0.19738,0.14575 -0.62801,0.4093 -0.95697,0.58568 -1.4753,0.791 -3.71294,2.14592 -3.97228,2.40526 -0.0996,0.0996 -0.43084,0.3167 -0.73606,0.48244 -0.30523,0.16573 -0.80362,0.47314 -1.10753,0.68312 -0.30391,0.20999 -0.70762,0.47532 -0.89715,0.58964 -0.18953,0.11432 -0.66757,0.44984 -1.06232,0.7456 -0.39475,0.29576 -0.95995,0.69545 -1.25601,0.88819 -0.29607,0.19274 -0.70717,0.48972 -0.91358,0.65994 -0.36419,0.30036 -0.52589,0.33375 -1.09007,0.22508 z"
         id="path2"
         transform="scale(0.26458333)"
         sodipodi:nodetypes="sssssssssssssssssssssssssssssssssssccssssssssssssssssssssssssssssssssssssssssss" /><path
         style="display:inline;fill:#ffffff;fill-opacity:1;stroke:#000000;stroke-width:4.91339;stroke-linecap:round;stroke-linejoin:round;stroke-dasharray:none;stroke-opacity:1"
         d="m 473.70288,447.06749 c -0.26025,-0.0932 -0.58322,-0.26979 -0.71773,-0.39244 -0.1345,-0.12265 -0.43295,-0.31618 -0.66322,-0.43007 -0.23027,-0.1139 -0.55325,-0.32767 -0.71772,-0.47505 -0.36047,-0.323 -2.71072,-1.91903 -4.84464,-3.28994 -9.61128,-6.17466 -20.77711,-11.28103 -31.87889,-14.57889 -6.46291,-1.91985 -12.18272,-3.13948 -19.76754,-4.215 -3.25714,-0.46185 -3.98321,-0.53839 -6.66861,-0.70295 -3.21269,-0.19688 -9.41837,-0.82904 -9.72121,-1.19393 -0.11014,-0.13272 -2.91266,-2.49334 -0.13165,-7.59101 l 0.68968,-7.58585 -1.03124,-0.0842 c -0.61334,-0.0501 12.82614,-0.043 15.63713,0.37013 0.65791,0.0967 2.08439,0.27908 3.16994,0.40533 1.08556,0.12624 2.47072,0.34031 3.07813,0.4757 0.60741,0.13539 1.92623,0.35156 2.93071,0.48038 1.00447,0.12881 2.28386,0.37232 2.84309,0.54112 0.55922,0.1688 1.6612,0.39075 2.44883,0.49322 0.78763,0.10247 1.81038,0.31351 2.27279,0.46899 0.4624,0.15547 1.29828,0.37218 1.85751,0.48157 0.55923,0.10939 1.3305,0.33024 1.71394,0.49078 0.38344,0.16054 1.28607,0.39793 2.00585,0.52754 0.71978,0.12961 1.6494,0.3639 2.06583,0.52064 0.41643,0.15674 1.18251,0.37843 1.70239,0.49263 0.51988,0.11421 1.14785,0.30958 1.39549,0.43416 0.24763,0.12458 0.97432,0.36563 1.61487,0.53566 0.64055,0.17003 1.32613,0.3929 1.5235,0.49527 0.19737,0.10237 0.81641,0.33438 1.37564,0.51559 1.59004,0.51524 3.56007,1.26853 3.98209,1.52267 0.21123,0.1272 0.76086,0.35299 1.2214,0.50176 0.46054,0.14877 1.05697,0.39742 1.32539,0.55255 0.26842,0.15513 0.78793,0.38524 1.15446,0.51134 0.36653,0.1261 0.79684,0.31474 0.95626,0.4192 0.15942,0.10445 0.68522,0.32439 1.16845,0.48874 0.48322,0.16436 0.96807,0.37981 1.07742,0.47877 0.10936,0.099 0.57127,0.30808 1.02648,0.4647 0.78415,0.2698 2.12013,0.88827 3.04062,1.4076 0.23027,0.12992 0.71473,0.36947 1.07659,0.53234 0.71718,0.3228 0.90671,0.42202 2.3326,1.22114 0.52633,0.29498 1.17228,0.64592 1.43545,0.77988 1.64285,0.83621 7.39492,4.29872 8.38468,5.04723 l 0.3701,0.27989 0.0821,1.53331 c 0.12576,2.34809 -0.0561,16.87732 -0.21368,17.07539 -0.10995,0.13817 -0.20359,0.13726 -0.60332,-0.006 z"
         id="path3"
         transform="scale(0.26458333)"
         sodipodi:nodetypes="cssssssssscsssssssssssssssssssssssssssssscsscc" /><path
         style="fill:#ffffff;fill-opacity:1;stroke:#000000;stroke-width:4.91339;stroke-linecap:round;stroke-linejoin:round;stroke-dasharray:none;stroke-opacity:1"
         d="m 481.63916,496.13951 c -0.30331,-0.33615 -0.7004,-0.90725 -0.88242,-1.2691 -0.18202,-0.36185 -0.39781,-0.69701 -0.47952,-0.74479 -0.0817,-0.0478 -0.21914,-0.2631 -0.30537,-0.47848 -0.0862,-0.21539 -0.33249,-0.59025 -0.54722,-0.83304 -0.21473,-0.24279 -0.47504,-0.60507 -0.57846,-0.80508 -0.10343,-0.2 -0.56893,-0.75497 -1.03445,-1.23325 -0.46552,-0.47829 -0.92938,-1.0311 -1.0308,-1.22847 -0.10143,-0.19738 -0.5174,-0.73567 -0.92438,-1.19621 -0.40698,-0.46054 -0.90935,-1.08656 -1.11636,-1.39115 -0.20701,-0.30459 -0.45869,-0.58539 -0.55929,-0.62399 -0.1006,-0.0386 -0.28775,-0.24259 -0.41589,-0.45331 -0.37658,-0.61923 -2.62204,-2.99694 -3.99503,-4.2303 -0.36619,-0.32896 -0.99425,-0.907 -1.39569,-1.28454 -0.40144,-0.37754 -0.92897,-0.83328 -1.1723,-1.01275 -0.24332,-0.17947 -0.64716,-0.50554 -0.89741,-0.7246 -0.25025,-0.21905 -0.60014,-0.45929 -0.77753,-0.53384 -0.1774,-0.0746 -0.56995,-0.40648 -0.87235,-0.73761 l -0.54982,-0.60204 0.37039,-0.36383 c 0.20371,-0.20011 0.67329,-0.68661 1.0435,-1.08112 0.75457,-0.80408 1.22391,-1.27596 1.64714,-1.65603 0.15769,-0.1416 0.61524,-0.6044 1.01677,-1.02844 1.04238,-1.10078 6.01247,-6.01074 7.09015,-7.00436 1.16419,-1.07339 2.88188,-2.77759 6.33281,-6.28309 1.5204,-1.54444 3.06618,-3.07443 3.43505,-3.39997 0.3831,-0.3381 0.82568,-0.88269 1.03217,-1.27011 l 0.36149,-0.67823 0.0586,-11.06189 c 0.0578,-10.91656 0.12649,-12.89921 0.47956,-13.84657 0.30112,-0.80799 1.05295,-2.4575 1.2014,-2.63589 0.0821,-0.0987 0.25836,-0.39475 0.39165,-0.65791 0.66469,-1.31245 3.19111,-3.91242 4.37908,-4.5066 0.40127,-0.2007 0.81324,-0.43841 0.91549,-0.52825 0.17995,-0.1581 1.90406,-0.85172 2.96603,-1.19325 0.80882,-0.26012 3.13344,-0.39608 4.92245,-0.28791 1.79869,0.10876 2.62706,0.26218 3.16609,0.58641 0.19949,0.11999 0.64227,0.30885 0.98395,0.41969 0.34169,0.11084 0.75727,0.30852 0.92352,0.43929 0.16625,0.13078 0.65376,0.39715 1.08335,0.59193 0.4296,0.19479 0.78108,0.40678 0.78108,0.47109 0,0.0643 0.20569,0.24678 0.4571,0.40548 1.06053,0.66949 3.04546,2.70113 3.51927,3.60212 0.0692,0.13158 0.27941,0.41606 0.46714,0.63217 0.18772,0.21611 0.34131,0.45465 0.34131,0.5301 0,0.0754 0.24107,0.62944 0.5357,1.23111 0.40498,0.82701 0.61283,1.47114 0.85182,2.63984 l 0.31614,1.54591 -0.0599,5.70992 -0.0599,5.70992 0.29679,0.29679 c 0.16323,0.16323 0.38561,0.32498 0.49417,0.35944 0.10856,0.0344 2.80805,0.0777 5.99885,0.096 l 5.80147,0.0333 1.78048,0.51252 c 0.97927,0.28189 1.9482,0.63547 2.15318,0.78573 0.20497,0.15027 0.64182,0.37108 0.97078,0.49069 0.32896,0.11962 0.77492,0.3707 0.99103,0.55796 0.21611,0.18726 0.44161,0.34047 0.50111,0.34047 0.0595,0 0.36715,0.21929 0.68366,0.48732 0.31651,0.26802 0.80706,0.68381 1.0901,0.92397 0.28304,0.24016 0.67224,0.68027 0.86488,0.97803 0.19264,0.29777 0.44985,0.67596 0.57157,0.84044 0.62972,0.8509 1.11945,1.69552 1.32151,2.27913 0.12407,0.35836 0.33463,0.83998 0.46791,1.07025 0.13328,0.23027 0.33489,0.8493 0.44803,1.37563 0.11314,0.52633 0.30705,1.38439 0.43091,1.9068 0.27674,1.16723 0.29616,3.27328 0.0398,4.31347 -0.0973,0.39475 -0.28173,1.38474 -0.40985,2.19997 -0.17342,1.10348 -0.30719,1.59256 -0.52348,1.91393 -0.15979,0.23743 -0.38028,0.71066 -0.48997,1.05162 -0.10969,0.34096 -0.38339,0.85234 -0.6082,1.1364 -0.22482,0.28405 -0.44059,0.66128 -0.47949,0.83828 -0.043,0.19584 -0.23153,0.4167 -0.48147,0.56417 -0.2259,0.13328 -0.41073,0.29485 -0.41073,0.35903 0,0.21897 -1.21229,1.50569 -1.61492,1.71406 -0.22085,0.1143 -0.43622,0.31707 -0.4786,0.45061 -0.0424,0.13354 -0.25251,0.31611 -0.46694,0.4057 -0.21444,0.0896 -0.49312,0.29223 -0.61931,0.45029 -0.12618,0.15805 -0.55239,0.4101 -0.94714,0.56011 -0.39475,0.15 -0.83437,0.38227 -0.97693,0.51616 -0.15785,0.14825 -0.72895,0.35445 -1.46049,0.52734 -0.66071,0.15614 -1.40422,0.36869 -1.65226,0.47233 -0.64063,0.26767 -2.65243,0.3155 -14.21227,0.3379 -9.3186,0.0181 -9.95277,0.0325 -10.32343,0.23482 -0.21721,0.11858 -0.42559,0.29551 -0.46308,0.39319 -0.0375,0.0977 -0.23303,0.26287 -0.43454,0.36708 -0.46035,0.23805 -1.63817,1.42468 -1.63817,1.65041 0,0.0928 -0.11219,0.2043 -0.24931,0.24782 -0.28178,0.0894 -2.86082,2.59947 -2.86082,2.78428 0,0.0659 -0.15707,0.21923 -0.34905,0.34082 -0.19197,0.1216 -0.62362,0.54406 -0.95921,0.93881 -0.3356,0.39474 -0.66907,0.77155 -0.74105,0.83734 -0.072,0.0658 -0.8473,0.8194 -1.72292,1.67469 -0.87562,0.85529 -1.90575,1.85585 -2.28918,2.22348 -0.38344,0.36763 -0.80481,0.78434 -0.9364,0.92602 -0.13158,0.14168 -0.80445,0.81922 -1.49525,1.50566 -0.69081,0.68643 -1.728,1.75003 -2.30486,2.36355 -1.14271,1.21532 -1.13101,1.20327 -2.28843,2.35655 -1.29526,1.29063 -1.59328,1.6187 -1.66611,1.83406 -0.038,0.11233 -0.2834,0.33954 -0.54537,0.50491 -0.26197,0.16537 -0.52023,0.37541 -0.57391,0.46676 -0.0738,0.12563 -0.23194,0.0172 -0.64908,-0.44509 z"
         id="path4"
         transform="scale(0.26458333)" /><path
         style="fill:#ffffff;fill-opacity:1;stroke:#000000;stroke-width:4.91339;stroke-linecap:round;stroke-linejoin:round;stroke-dasharray:none;stroke-opacity:1"
         d="m 310.64096,496.08981 c -1.11692,-1.27412 -3.57429,-3.89281 -4.23118,-4.50896 -0.21043,-0.19738 -1.39579,-1.38162 -2.63414,-2.63166 -1.23835,-1.25003 -2.43108,-2.43351 -2.6505,-2.62995 -0.21943,-0.19644 -0.64119,-0.61929 -0.93725,-0.93967 -0.29606,-0.32038 -0.94201,-0.96609 -1.43545,-1.43491 -0.49343,-0.46882 -1.35801,-1.31095 -1.92128,-1.87141 -0.56327,-0.56046 -1.76441,-1.7188 -2.66921,-2.57408 -0.9048,-0.85529 -2.05381,-1.97334 -2.55336,-2.48456 -0.49955,-0.51123 -1.03499,-0.9613 -1.18988,-1.00017 -0.15488,-0.0389 -0.39499,-0.22992 -0.53358,-0.42455 -0.13858,-0.19463 -0.39368,-0.41699 -0.56687,-0.49413 -0.22949,-0.10222 -3.33209,-0.1602 -11.43961,-0.21376 -9.29406,-0.0614 -11.26251,-0.10336 -11.96206,-0.25493 -0.46054,-0.0998 -1.26798,-0.27306 -1.79431,-0.38506 -0.52633,-0.11199 -1.11845,-0.30727 -1.31583,-0.43395 -0.19737,-0.12668 -0.70875,-0.39778 -1.13639,-0.60244 -0.42765,-0.20466 -0.8208,-0.44722 -0.87367,-0.53902 -0.0529,-0.0918 -0.30274,-0.27233 -0.55526,-0.40115 -0.25252,-0.12883 -0.66681,-0.43021 -0.92064,-0.66974 -0.25384,-0.23953 -0.65277,-0.53315 -0.88652,-0.65249 -0.23375,-0.11934 -0.48865,-0.35666 -0.56644,-0.52739 -0.0778,-0.17072 -0.26674,-0.3675 -0.4199,-0.43728 -0.15316,-0.0698 -0.37721,-0.31024 -0.4979,-0.53435 -0.12069,-0.2241 -0.34537,-0.48998 -0.49929,-0.59083 -0.15392,-0.10085 -0.38563,-0.39071 -0.51492,-0.64413 -0.12928,-0.25342 -0.36866,-0.61954 -0.53196,-0.81361 -0.1633,-0.19406 -0.40554,-0.63875 -0.53832,-0.98819 -0.13277,-0.34944 -0.37627,-0.83034 -0.5411,-1.06867 -0.20958,-0.30303 -0.40735,-0.93889 -0.65779,-2.11484 -0.19696,-0.92484 -0.41456,-1.82998 -0.48355,-2.01143 -0.16301,-0.42875 -0.16117,-3.11154 0.003,-3.70108 0.0696,-0.25082 0.28166,-1.17811 0.47114,-2.06066 0.19997,-0.93144 0.46674,-1.81908 0.63589,-2.11581 0.16027,-0.28115 0.3901,-0.78032 0.51073,-1.10928 0.12064,-0.32896 0.34076,-0.73268 0.48915,-0.89716 0.73463,-0.81427 1.35374,-1.57304 1.35374,-1.65911 0,-0.0528 0.3826,-0.41439 0.85022,-0.80345 0.46763,-0.38906 1.04405,-0.88233 1.28094,-1.09615 0.2369,-0.21382 0.46824,-0.38877 0.5141,-0.38877 0.0459,0 0.30463,-0.18485 0.57505,-0.41077 0.27041,-0.22593 0.78923,-0.52211 1.15292,-0.65818 0.36369,-0.13608 0.81361,-0.36006 0.99983,-0.49773 0.18622,-0.13768 0.89711,-0.41077 1.57977,-0.60686 0.68265,-0.1961 1.42959,-0.41305 1.65985,-0.48211 0.25346,-0.076 2.86032,-0.15506 6.60587,-0.20031 6.10007,-0.0737 6.19077,-0.0783 6.44129,-0.32899 0.25162,-0.25176 0.25437,-0.31365 0.28221,-6.33989 0.0239,-5.16968 0.059,-6.24768 0.23338,-7.16221 0.1129,-0.59211 0.2809,-1.19199 0.37334,-1.33307 0.0924,-0.14109 0.28227,-0.59864 0.42185,-1.0168 0.28378,-0.85017 1.18097,-2.45849 1.5654,-2.80616 0.138,-0.1248 0.34808,-0.41532 0.46685,-0.64559 0.19479,-0.37767 1.80816,-1.98425 2.95895,-2.9465 0.24644,-0.20607 0.79796,-0.54406 1.22561,-0.75111 0.42764,-0.20704 0.96593,-0.47775 1.1962,-0.60158 2.19508,-1.18041 3.08465,-1.37385 6.3399,-1.37864 2.48349,-0.004 3.52052,0.14571 4.54558,0.65473 0.36185,0.17968 0.79248,0.36688 0.95696,0.41599 0.16448,0.0491 0.47312,0.21969 0.68587,0.37906 0.21275,0.15938 0.65441,0.41375 0.98147,0.56528 0.32706,0.15153 1.06093,0.70121 1.63083,1.22151 1.84094,1.68075 2.26986,2.24286 3.734,4.89348 0.62265,1.12724 0.61631,1.10265 1.16463,4.51408 0.16053,0.99874 0.18487,2.65284 0.17081,11.60895 -0.0115,7.33504 0.0232,10.59129 0.1166,10.93814 0.0967,0.35901 0.35287,0.71002 0.93817,1.28536 2.26736,2.22878 5.13416,5.08292 5.30476,5.28135 0.10628,0.12361 1.36446,1.35517 2.79596,2.73679 1.4315,1.38161 4.25132,4.14085 6.26628,6.13162 2.01495,1.99078 3.7045,3.65949 3.75455,3.70824 0.99069,0.96498 3.07895,3.13924 3.07895,3.20575 0,0.11883 -1.40737,1.48829 -1.52948,1.48829 -0.0525,0 -0.30844,0.18595 -0.56887,0.41322 -0.26042,0.22728 -0.71573,0.62475 -1.01179,0.88328 -2.74467,2.3967 -6.09061,5.87002 -8.31363,8.63012 -0.32896,0.40843 -0.73626,0.91237 -0.90512,1.11987 -0.16886,0.2075 -0.43502,0.59259 -0.59146,0.85576 -0.15644,0.26316 -0.50275,0.69683 -0.76957,0.96371 -0.79089,0.79107 -1.12929,1.22403 -1.32747,1.69847 -0.10292,0.24637 -0.31451,0.58253 -0.4702,0.74701 -0.15569,0.16447 -0.41902,0.60857 -0.58518,0.98687 -0.16615,0.3783 -0.35235,0.68781 -0.41378,0.68781 -0.0614,0 -0.17328,0.14869 -0.24856,0.33042 -0.26321,0.63546 -0.64184,0.97709 -1.14817,1.03596 -0.44767,0.0521 -0.51019,0.0195 -0.9707,-0.50584 z"
         id="path5"
         transform="scale(0.26458333)" /><path
         style="fill:#ffffff;fill-opacity:1;stroke:#000000;stroke-width:4.91339;stroke-linecap:round;stroke-linejoin:round;stroke-dasharray:none;stroke-opacity:1"
         d="m 521.3391,639.61634 -7.26432,-0.0648 -0.32428,-0.32436 -0.32428,-0.32437 0.28226,-0.60263 c 0.15524,-0.33145 0.38645,-0.69686 0.51381,-0.81203 0.12735,-0.11517 0.34083,-0.42471 0.47441,-0.68788 0.13357,-0.26316 0.37265,-0.6337 0.53128,-0.82341 0.15863,-0.18971 0.40075,-0.56652 0.53804,-0.83735 0.13729,-0.27082 0.40387,-0.66923 0.59239,-0.88534 0.18852,-0.21611 0.34276,-0.4684 0.34276,-0.56064 0,-0.0922 0.24223,-0.52152 0.53829,-0.95396 0.29606,-0.43244 0.5383,-0.8273 0.5383,-0.87746 0,-0.0502 0.15408,-0.27841 0.34241,-0.50723 0.18834,-0.22881 0.51011,-0.74853 0.71505,-1.15493 0.20495,-0.40641 0.42892,-0.77371 0.49772,-0.81623 0.0688,-0.0425 0.28777,-0.40979 0.4866,-0.81615 0.4021,-0.82179 1.13495,-2.13073 1.45876,-2.60551 0.11604,-0.17014 0.33559,-0.62718 0.48788,-1.01565 0.1523,-0.38846 0.41229,-0.92162 0.57776,-1.18478 0.16547,-0.26317 0.4194,-0.79662 0.56428,-1.18544 0.14488,-0.38883 0.36975,-0.85628 0.4997,-1.03878 0.12996,-0.1825 0.31302,-0.54931 0.40681,-0.81514 0.0938,-0.26582 0.3311,-0.79422 0.52736,-1.1742 0.59078,-1.14383 1.42618,-2.94402 1.51411,-3.26273 0.0454,-0.16448 0.23262,-0.5682 0.4161,-0.89716 0.18348,-0.32895 0.39645,-0.90692 0.47327,-1.28437 0.0768,-0.37745 0.28965,-0.96957 0.47296,-1.31583 0.18332,-0.34625 0.45651,-1.0029 0.6071,-1.45922 0.15059,-0.45632 0.37036,-0.99461 0.48837,-1.19621 0.11802,-0.20159 0.30684,-0.74334 0.4196,-1.20388 0.11276,-0.46054 0.35362,-1.13591 0.53525,-1.50083 0.18162,-0.36492 0.38695,-0.97036 0.45629,-1.34543 0.0693,-0.37506 0.28318,-1.07431 0.4752,-1.55388 0.19203,-0.47957 0.44291,-1.3006 0.5575,-1.82452 0.11459,-0.52392 0.33107,-1.24864 0.48107,-1.61049 0.15,-0.36185 0.38412,-1.28047 0.52027,-2.04139 0.13614,-0.76091 0.37789,-1.72983 0.53721,-2.15317 0.15931,-0.42333 0.40305,-1.44256 0.54163,-2.26495 0.13858,-0.82239 0.35884,-1.83453 0.48946,-2.24921 0.13062,-0.41467 0.34749,-1.59117 0.48193,-2.61443 0.13444,-1.02327 0.34911,-2.24504 0.47703,-2.71505 0.12792,-0.47001 0.28868,-1.36594 0.35723,-1.99096 0.13164,-1.20021 0.38648,-2.69461 0.66296,-3.88767 0.28142,-1.21435 0.54306,-4.75275 0.72064,-9.74577 0.0432,-1.21532 0.78213,-6.9949 0.8379,-7.1416 0.0558,-0.1467 -0.29274,-2.23378 -0.35227,-0.3455 -0.0281,0.8921 2.05418,-1.68921 8.36528,-1.64629 5.42673,0.0369 6.76636,0.26063 6.9101,0.37991 0.35592,0.29539 -0.14217,7.15307 -0.21807,9.64733 -0.12844,4.22115 -0.2961,6.53457 -0.58952,8.1342 -0.166,0.90501 -0.31695,2.30513 -0.36111,3.34938 -0.0866,2.04698 -0.19264,2.90566 -0.59849,4.84463 -0.15836,0.7566 -0.37739,2.07045 -0.48672,2.91966 -0.10933,0.84921 -0.29698,1.8514 -0.41699,2.22707 -0.12002,0.37568 -0.30708,1.24192 -0.41571,1.92498 -0.3114,1.95811 -0.42534,2.47786 -0.66073,3.0138 -0.121,0.2755 -0.32778,1.06612 -0.4595,1.75693 -0.13173,0.69081 -0.37557,1.61386 -0.54187,2.05122 -0.1663,0.43737 -0.36615,1.16407 -0.4441,1.61488 -0.0779,0.45082 -0.26975,1.1007 -0.42621,1.44419 -0.15646,0.34348 -0.4243,1.15092 -0.5952,1.7943 -0.17089,0.64339 -0.40814,1.36143 -0.52722,1.59565 -0.11907,0.23421 -0.30385,0.77251 -0.41061,1.1962 -0.10676,0.4237 -0.35262,1.14717 -0.54636,1.60771 -0.19374,0.46054 -0.43541,1.21414 -0.53704,1.67468 -0.10163,0.46054 -0.3134,1.08433 -0.47061,1.3862 -0.1572,0.30186 -0.37739,0.86707 -0.48931,1.25601 -0.11191,0.38894 -0.32655,0.92249 -0.47697,1.18565 -0.15042,0.26317 -0.39052,0.88221 -0.53354,1.37564 -0.14303,0.49344 -0.35564,1.06259 -0.47246,1.2648 -0.11683,0.2022 -0.33101,0.68666 -0.47597,1.07658 -0.14496,0.38992 -0.3579,0.87043 -0.4732,1.06781 -0.11529,0.19737 -0.36153,0.76258 -0.54719,1.25601 -0.18565,0.49344 -0.41022,0.98152 -0.49902,1.08463 -0.0888,0.10311 -0.32121,0.62986 -0.51647,1.17057 -0.19525,0.5407 -0.46217,1.1336 -0.59316,1.31756 -0.13098,0.18395 -0.35095,0.62062 -0.48881,0.97037 -0.13786,0.34975 -0.35254,0.76544 -0.47707,0.92376 -0.12453,0.15831 -0.34248,0.63662 -0.48434,1.0629 -0.14186,0.42628 -0.38477,0.9258 -0.53981,1.11005 -0.15503,0.18425 -0.39674,0.62641 -0.53713,0.98258 -0.14039,0.35617 -0.31808,0.72233 -0.39486,0.81368 -0.0768,0.0914 -0.33287,0.54904 -0.56908,1.01708 -0.81988,1.6245 -1.30017,2.50146 -1.47698,2.69683 -0.0978,0.10804 -0.29513,0.46361 -0.43858,0.79016 -0.14346,0.32656 -0.39156,0.75522 -0.55135,0.9526 -0.15979,0.19737 -0.40904,0.54588 -0.55388,0.77445 -0.32713,0.51625 -0.9011,0.7083 -2.05228,0.68672 -0.46053,-0.009 -4.10628,-0.0449 -8.10166,-0.0805 z"
         id="path6"
         transform="scale(0.26458333)"
         sodipodi:nodetypes="ccccsssssssssssssssssssssssssssssssssssssssssssssssssssssssssssssssssssssssssssssssssssscsc" /><path
         style="fill:#ffffff;fill-opacity:1;stroke:#000000;stroke-width:4.91339;stroke-linecap:round;stroke-linejoin:round;stroke-dasharray:none;stroke-opacity:1"
         d="m 498.39922,705.38847 c -2.65659,-0.48533 -2.98789,-0.56968 -3.37638,-0.85962 -0.21542,-0.16078 -0.68773,-0.38508 -1.04958,-0.49844 -0.36185,-0.11337 -0.76557,-0.33269 -0.89716,-0.48737 -0.13158,-0.15468 -0.43322,-0.36218 -0.67032,-0.46112 -0.2371,-0.0989 -0.51847,-0.31325 -0.62528,-0.47626 -0.10681,-0.16301 -0.35269,-0.39001 -0.54641,-0.50444 -0.19372,-0.11443 -0.41619,-0.3276 -0.49438,-0.47369 -0.0782,-0.1461 -0.26395,-0.33081 -0.41279,-0.41047 -0.14885,-0.0797 -0.39076,-0.35857 -0.53758,-0.6198 -0.14682,-0.26123 -0.34349,-0.50434 -0.43704,-0.54024 -0.0935,-0.0359 -0.3019,-0.34158 -0.46299,-0.67928 -0.1611,-0.33771 -0.42655,-0.76776 -0.5899,-0.95566 -0.16335,-0.1879 -0.35952,-0.53779 -0.43593,-0.77753 -0.0764,-0.23974 -0.29481,-0.71296 -0.48531,-1.05159 -0.2153,-0.38271 -0.39749,-0.94853 -0.48147,-1.49526 -0.0904,-0.58861 -0.14736,-4.38144 -0.17219,-11.46599 -0.0204,-5.82253 -0.0645,-10.84649 -0.0979,-11.16437 -0.0578,-0.54917 -0.13995,-0.66211 -1.65028,-2.26875 -0.8742,-0.92994 -1.75094,-1.82421 -1.94832,-1.98726 -0.19737,-0.16305 -0.57418,-0.53256 -0.83734,-0.82114 -0.26317,-0.28858 -1.36424,-1.39507 -2.44682,-2.45886 -1.08259,-1.06379 -2.25099,-2.23023 -2.59644,-2.59208 -0.34546,-0.36185 -0.69778,-0.72387 -0.78294,-0.80447 -1.01621,-0.96188 -1.84389,-1.78426 -2.44094,-2.42529 -0.3983,-0.42764 -0.98888,-1.0316 -1.3124,-1.34213 -0.32351,-0.31052 -1.42257,-1.41106 -2.44233,-2.44562 -1.01977,-1.03457 -2.14707,-2.14142 -2.50513,-2.45967 -0.35805,-0.31824 -0.7756,-0.75374 -0.92788,-0.96777 -0.15229,-0.21403 -0.55911,-0.59739 -0.90406,-0.85191 -0.34495,-0.25452 -1.00399,-0.88639 -1.46453,-1.40415 -0.65588,-0.73737 -5.4642,-5.70192 -6.0619,-6.25886 -0.0706,-0.0658 -0.55502,-0.53783 -1.07648,-1.04898 -0.52145,-0.51115 -1.16182,-1.07079 -1.42303,-1.24366 -0.49376,-0.32675 -0.49663,-0.34088 -0.21949,-1.08191 0.0963,-0.25747 0.30531,-0.34231 1.81112,-0.73513 0.24568,-0.0641 0.58913,-0.22857 0.76323,-0.36551 0.17409,-0.13694 0.68007,-0.35725 1.1244,-0.48958 0.44433,-0.13232 0.87925,-0.32659 0.96649,-0.4317 0.0872,-0.10512 0.45682,-0.32294 0.82131,-0.48405 0.36448,-0.16112 0.79727,-0.4207 0.96175,-0.57686 0.16448,-0.15616 0.59511,-0.39951 0.95696,-0.54077 0.36185,-0.14127 0.76557,-0.35402 0.89716,-0.47278 0.13158,-0.11877 0.50542,-0.33166 0.83076,-0.4731 0.32533,-0.14143 0.75596,-0.38214 0.95696,-0.53489 0.201,-0.15275 0.55344,-0.37458 0.78321,-0.49296 0.22977,-0.11837 0.63349,-0.37198 0.89715,-0.56356 0.26367,-0.19159 0.72163,-0.50574 1.01769,-0.6981 0.29606,-0.19237 0.78052,-0.53955 1.07658,-0.77151 0.29607,-0.23197 0.90165,-0.66591 1.34574,-0.96432 0.44409,-0.29841 0.80744,-0.58499 0.80744,-0.63683 0,-0.0519 0.38126,-0.41259 0.84725,-0.80165 0.46599,-0.38906 1.46313,-1.3131 2.21586,-2.05343 0.75274,-0.74033 1.57811,-1.4783 1.83416,-1.63994 0.25605,-0.16163 0.49753,-0.34563 0.53662,-0.40889 0.12779,-0.20677 1.37325,0.66061 2.06596,1.43881 0.37202,0.41793 1.00337,1.06718 1.403,1.44277 0.39963,0.3756 0.78043,0.74142 0.84622,0.81292 0.35788,0.38895 3.88394,3.85678 5.22948,5.14312 0.86025,0.82239 2.16179,2.10597 2.89232,2.8524 2.77267,2.83302 5.82844,5.87231 7.29488,7.25554 0.83699,0.7895 2.60068,2.4991 3.91932,3.79911 1.31863,1.30001 2.64316,2.565 2.9434,2.81108 l 0.54588,0.44743 10.53774,0.0704 c 8.62564,0.0576 10.85637,0.10601 12.29373,0.26676 1.98974,0.22251 2.71499,0.36475 3.23743,0.63491 0.19997,0.10341 0.78922,0.31176 1.30943,0.463 0.52022,0.15124 1.14508,0.41142 1.3886,0.57818 0.24351,0.16675 0.60424,0.37179 0.80162,0.45564 0.19737,0.0838 0.58463,0.34317 0.86057,0.57629 0.27594,0.23311 0.80163,0.66608 1.16821,0.96214 0.76582,0.6185 1.1926,1.14577 2.4296,3.00161 0.14942,0.22416 0.35704,0.69687 0.46139,1.05046 0.10435,0.35359 0.29759,0.82571 0.42943,1.04915 0.16568,0.28082 0.34764,1.11649 0.5893,2.70649 0.36037,2.37098 0.42636,3.26783 0.30128,4.09454 -0.6162,4.07279 -0.64348,4.2023 -1.03311,4.90444 -0.18254,0.32896 -0.36353,0.73268 -0.40221,0.89715 -0.0387,0.16448 -0.3146,0.67038 -0.61317,1.12423 -0.29858,0.45385 -0.54287,0.88782 -0.54287,0.96438 0,0.0765 -0.16419,0.26059 -0.36487,0.40896 -0.20068,0.14837 -0.4136,0.39791 -0.47314,0.55453 -0.0595,0.15662 -0.25871,0.3815 -0.44257,0.49972 -0.18386,0.11822 -0.50528,0.37673 -0.71427,0.57446 -0.72825,0.68902 -1.29912,1.10819 -1.95263,1.43376 -0.36185,0.18027 -0.76557,0.4216 -0.89715,0.5363 -0.13158,0.11469 -0.5353,0.30029 -0.89715,0.41243 -0.36186,0.11215 -0.8128,0.31511 -1.00211,0.45103 -0.18931,0.13592 -0.61994,0.3226 -0.95697,0.41485 -0.97192,0.26601 -4.43065,0.40861 -9.30557,0.38367 -4.1091,-0.021 -4.53416,-0.005 -4.82472,0.18572 -0.61062,0.40009 -0.63259,0.58868 -0.69818,5.99355 -0.0756,6.22629 -0.26067,7.99453 -0.90987,8.69136 -0.13001,0.13955 -0.30323,0.55246 -0.38494,0.91758 -0.0851,0.38025 -0.28441,0.8199 -0.46655,1.02911 -0.17488,0.20089 -0.4029,0.53118 -0.50669,0.73397 -0.1038,0.2028 -0.38077,0.59858 -0.6155,0.87953 -0.23472,0.28095 -0.4597,0.64202 -0.49995,0.80239 -0.0451,0.17953 -0.25343,0.38353 -0.54227,0.53088 -0.25801,0.13163 -0.52357,0.35886 -0.59014,0.50496 -0.0666,0.14611 -0.27975,0.35674 -0.47373,0.46807 -0.19399,0.11134 -0.41096,0.33029 -0.48217,0.48656 -0.0712,0.15627 -0.31425,0.35096 -0.54011,0.43263 -0.22586,0.0817 -0.64471,0.32715 -0.93078,0.54551 -0.28607,0.21837 -0.64858,0.43692 -0.80558,0.48567 -0.157,0.0488 -0.60218,0.24753 -0.98929,0.44172 -0.44856,0.22501 -1.39687,0.50136 -2.61461,0.76193 -2.21958,0.47494 -3.20239,0.50481 -5.1148,0.15543 z"
         id="path7"
         transform="scale(0.26458333)" /><path
         style="fill:#ffffff;fill-opacity:1;stroke:#000000;stroke-width:4.91339;stroke-linecap:round;stroke-linejoin:round;stroke-dasharray:none;stroke-opacity:1"
         d="m 400.5023,718.85105 -1.13765,0.0724 0.70645,-7.59954 c 0.57505,-6.18619 -0.56356,-7.46107 -0.43047,-7.62757 0.20655,-0.25848 4.5269,-0.56539 5.55014,-0.57023 0.44085,-0.002 1.36676,-0.0842 2.05756,-0.18237 0.69081,-0.0982 2.17979,-0.25187 3.30885,-0.34145 1.12906,-0.0896 2.09799,-0.19072 2.15317,-0.22477 0.0552,-0.034 0.63863,-0.12501 1.29655,-0.20213 0.65791,-0.0771 1.62684,-0.24309 2.15317,-0.36882 0.52633,-0.12574 2.06046,-0.33407 3.40919,-0.46298 1.45863,-0.1394 2.76726,-0.33051 3.22975,-0.47166 0.42765,-0.13052 1.36966,-0.32484 2.09336,-0.43182 0.72371,-0.10697 1.85412,-0.35303 2.51203,-0.54679 0.65792,-0.19376 1.80784,-0.46164 2.55539,-0.59529 0.74755,-0.13364 1.51371,-0.3229 1.70258,-0.42057 0.18887,-0.0977 0.9052,-0.31033 1.59185,-0.47257 0.68664,-0.16224 1.50845,-0.39738 1.82623,-0.52252 0.31777,-0.12514 1.03532,-0.34969 1.59455,-0.49901 0.55923,-0.14931 1.39358,-0.41946 1.85412,-0.60033 0.46054,-0.18087 1.16032,-0.39416 1.55507,-0.47398 0.39475,-0.0798 0.95995,-0.26726 1.25601,-0.41656 0.29607,-0.14929 0.91433,-0.3874 1.37392,-0.52912 0.45959,-0.14172 1.01227,-0.3619 1.22818,-0.48929 0.2159,-0.12738 0.78188,-0.34735 1.25773,-0.4888 0.47586,-0.14146 1.13433,-0.40744 1.46329,-0.59107 0.32896,-0.18363 0.81342,-0.37242 1.07659,-0.41953 0.26316,-0.0471 0.82302,-0.26685 1.24413,-0.48833 0.42112,-0.22147 0.82469,-0.40268 0.89683,-0.40268 0.0721,0 0.69652,-0.27515 1.38751,-0.61143 0.69099,-0.33629 2.06379,-1.00468 3.05066,-1.48531 0.98687,-0.48064 2.44026,-1.18345 3.22976,-1.56181 1.47501,-0.70689 2.4228,-1.22963 3.46899,-1.91329 0.32896,-0.21497 0.89417,-0.53184 1.25602,-0.70416 0.99438,-0.47353 1.98812,-1.05609 2.29782,-1.34704 0.15235,-0.14313 0.52962,-0.37198 0.83838,-0.50856 0.30877,-0.13658 0.71181,-0.37387 0.89567,-0.52731 0.18385,-0.15344 0.52268,-0.37507 0.75295,-0.49253 0.23027,-0.11745 0.93005,-0.57235 1.55507,-1.01088 0.62502,-0.43854 1.37863,-0.94446 1.67469,-1.12428 0.29606,-0.17982 0.86127,-0.56959 1.25602,-0.86616 1.28489,-0.96532 2.19644,-1.2442 2.63461,-0.80603 0.18382,0.18382 0.19393,0.86528 0.12881,8.6827 l -0.0707,8.48323 -0.26979,0.35062 c -0.14839,0.19284 -0.3875,0.50148 -0.53136,0.68587 -0.14386,0.18438 -0.49034,0.41074 -0.76996,0.50303 -0.27962,0.0923 -0.66968,0.30388 -0.86679,0.47022 -0.19712,0.16634 -0.63115,0.4414 -0.96454,0.61125 -1.13124,0.57632 -2.04077,1.10185 -2.28405,1.31973 -0.13335,0.11942 -0.64201,0.3819 -1.13035,0.58328 -0.48834,0.20137 -0.97136,0.43946 -1.07337,0.52908 -0.10201,0.0896 -0.51798,0.32927 -0.92439,0.53256 -0.4064,0.20329 -0.77077,0.42116 -0.80971,0.48417 -0.0389,0.063 -0.37929,0.22981 -0.75634,0.37067 -0.37705,0.14087 -0.85963,0.38867 -1.07241,0.55067 -0.21277,0.16201 -0.61473,0.37495 -0.89323,0.47321 -0.27851,0.0983 -0.72918,0.30923 -1.0015,0.46882 -0.27232,0.15959 -0.78546,0.4035 -1.14032,0.54203 -0.35485,0.13852 -0.83359,0.37904 -1.06386,0.53449 -0.23027,0.15544 -0.74165,0.37351 -1.13639,0.48458 -0.39475,0.11108 -0.87922,0.3221 -1.07659,0.46893 -0.19737,0.14684 -0.65492,0.36403 -1.01678,0.48265 -0.36185,0.11862 -0.92705,0.36653 -1.25601,0.55093 -0.32896,0.18438 -0.9296,0.43831 -1.33476,0.56428 -0.40516,0.12597 -0.89081,0.3388 -1.07923,0.47296 -0.18841,0.13417 -0.66436,0.33527 -1.05765,0.44689 -0.3933,0.11163 -0.9359,0.32962 -1.20579,0.48443 -0.26989,0.15481 -0.87829,0.38888 -1.35199,0.52015 -0.47371,0.13127 -1.03799,0.34788 -1.25396,0.48136 -0.21596,0.13347 -0.87255,0.35538 -1.45909,0.49311 -0.58653,0.13775 -1.35363,0.38483 -1.70467,0.54909 -0.35104,0.16426 -1.07773,0.40912 -1.61488,0.54413 -0.53714,0.13502 -1.16503,0.33978 -1.3953,0.45502 -0.23027,0.11525 -1.01079,0.34777 -1.7345,0.51671 -0.7237,0.16895 -1.52318,0.39408 -1.77662,0.50031 -0.25343,0.10622 -1.055,0.32456 -1.78126,0.4852 -0.72626,0.16063 -1.6224,0.39885 -1.99143,0.52938 -0.36903,0.13052 -1.1803,0.32269 -1.80283,0.42703 -0.62254,0.10435 -1.50887,0.32144 -1.96964,0.48242 -0.48268,0.16863 -1.62537,0.39567 -2.69598,0.53565 -1.02203,0.13362 -2.16246,0.34626 -2.5343,0.47252 -0.37184,0.12626 -1.82089,0.39542 -3.22011,0.59813 -1.39923,0.2027 -2.58798,0.3957 -2.64167,0.42889 -0.35608,0.22007 -3.15685,0.48544 -6.79984,0.64428 -1.5461,0.0674 -3.13406,0.17849 -3.52881,0.24684 -1.58402,0.27425 -3.20347,0.37651 -4.35051,0.43071 -0.65791,0.0311 -4.25898,-0.26747 -4.02552,-0.25171 z"
         id="path8"
         transform="scale(0.26458333)"
         sodipodi:nodetypes="ccssssssssssssssssssssssssssssssssssssssssscssssssssssssssssssssssssssssssssssssssssssssc" /><path
         style="fill:#ffffff;fill-opacity:1;stroke:#000000;stroke-width:4.91339;stroke-linecap:round;stroke-linejoin:round;stroke-dasharray:none;stroke-opacity:1"
         d="m 387.51635,718.91484 c -0.68783,-0.0556 -1.37666,-0.13266 -1.53073,-0.17133 -0.83321,-0.20912 -3.28257,-0.44172 -5.71174,-0.54241 -2.61151,-0.10824 -3.85792,-0.24823 -5.74825,-0.64561 -0.45699,-0.0961 -1.47035,-0.25847 -2.25192,-0.36091 -0.78157,-0.10243 -1.9389,-0.32046 -2.57184,-0.4845 -0.63295,-0.16404 -1.9236,-0.40889 -2.86813,-0.5441 -0.94453,-0.13522 -2.02112,-0.35037 -2.39242,-0.47812 -0.37129,-0.12776 -1.34795,-0.36411 -2.17034,-0.52523 -0.82239,-0.16112 -1.68675,-0.37391 -1.9208,-0.47285 -0.23405,-0.099 -1.04148,-0.29587 -1.79431,-0.43759 -0.75282,-0.14172 -1.63791,-0.38196 -1.96687,-0.53387 -0.32896,-0.1519 -1.05565,-0.36755 -1.61488,-0.4792 -0.55922,-0.11166 -1.40972,-0.35894 -1.88999,-0.54951 -0.48028,-0.19057 -1.23389,-0.42971 -1.67469,-0.53141 -0.44081,-0.10171 -1.0437,-0.31095 -1.33976,-0.46498 -0.29606,-0.15403 -0.96893,-0.36778 -1.49526,-0.475 -0.52633,-0.10722 -1.25302,-0.348 -1.61488,-0.53506 -0.36185,-0.18707 -0.95397,-0.40945 -1.31582,-0.49419 -0.36186,-0.0847 -0.95398,-0.3012 -1.31583,-0.48103 -0.36185,-0.17983 -0.98089,-0.41862 -1.37564,-0.53064 -0.39474,-0.11202 -0.91519,-0.33856 -1.15654,-0.50341 -0.24135,-0.16485 -0.77563,-0.40455 -1.18729,-0.53267 -0.41166,-0.12813 -0.91397,-0.332 -1.11625,-0.45306 -0.20228,-0.12106 -0.7715,-0.37038 -1.26493,-0.55404 -0.49344,-0.18367 -1.01924,-0.42811 -1.16845,-0.54322 -0.14921,-0.1151 -0.66059,-0.32684 -1.1364,-0.47054 -0.4758,-0.14369 -0.94584,-0.33293 -1.04453,-0.42053 -0.0987,-0.0876 -0.52932,-0.30725 -0.95696,-0.48812 -0.42765,-0.18088 -0.861,-0.39894 -0.96301,-0.48458 -0.10201,-0.0856 -0.57212,-0.31514 -1.04469,-0.51001 -0.47257,-0.19487 -1.03506,-0.48554 -1.24997,-0.64594 -0.21492,-0.16038 -0.66922,-0.38207 -1.00956,-0.49264 -0.34034,-0.11056 -0.68808,-0.28449 -0.77275,-0.38651 -0.0847,-0.10202 -0.45033,-0.31657 -0.81258,-0.47677 -0.36225,-0.16021 -0.74247,-0.36715 -0.84494,-0.45989 -0.10246,-0.0927 -0.57107,-0.32518 -1.04134,-0.51656 -0.47027,-0.19138 -1.0073,-0.46726 -1.1934,-0.61308 -0.50567,-0.39621 -1.56959,-1.03326 -2.3121,-1.38442 -0.36185,-0.17114 -0.79248,-0.434 -0.95696,-0.58414 -0.16448,-0.15013 -0.55078,-0.4163 -0.85845,-0.59148 -0.30766,-0.17518 -0.72484,-0.51923 -0.92706,-0.76455 l -0.36766,-0.44605 v -8.39821 c 0,-4.84484 0.0467,-8.52113 0.11045,-8.68873 0.0608,-0.15979 0.20354,-0.32625 0.31731,-0.3699 0.2997,-0.11501 1.01127,0.14393 1.42636,0.51905 0.56262,0.50846 1.49501,1.1427 2.20448,1.49956 0.35718,0.17966 0.72562,0.40286 0.81877,0.49601 0.0931,0.0931 0.33186,0.25339 0.53047,0.3561 0.31884,0.16487 0.85507,0.5071 2.26885,1.44799 0.21873,0.14557 0.68291,0.39945 1.0315,0.56418 0.34859,0.16472 0.80318,0.42242 1.01019,0.57266 0.53047,0.38499 1.55941,0.97007 2.56021,1.4558 0.47015,0.22819 0.89125,0.47383 0.93577,0.54586 0.0445,0.072 0.41346,0.29845 0.81987,0.50312 0.4064,0.20468 0.86384,0.46991 1.01653,0.58941 0.15269,0.11949 0.56629,0.30118 0.9191,0.40374 0.35282,0.10257 0.80277,0.32219 0.99988,0.48805 0.19712,0.16587 0.66052,0.40552 1.02979,0.53257 0.36927,0.12704 0.80674,0.33745 0.97216,0.46757 0.16542,0.13012 0.58032,0.32689 0.922,0.43727 0.34168,0.11039 0.86347,0.35118 1.15953,0.5351 0.29606,0.18393 0.82471,0.41813 1.17477,0.52046 0.35007,0.10234 0.91528,0.34292 1.25602,0.53463 0.34075,0.19171 0.83485,0.4162 1.09802,0.49885 0.26316,0.0827 0.77454,0.29688 1.13639,0.47606 0.36186,0.17918 0.95398,0.42137 1.31583,0.5382 0.36185,0.11684 0.87323,0.33413 1.1364,0.48288 0.26316,0.14874 0.80077,0.36192 1.19469,0.47372 0.39391,0.11181 0.9322,0.32777 1.1962,0.47991 0.264,0.15215 0.82989,0.37083 1.25754,0.48596 0.42764,0.11513 1.0336,0.33642 1.34657,0.49176 0.31298,0.15533 1.03967,0.39361 1.61488,0.5295 0.57521,0.13589 1.39573,0.39762 1.82337,0.58161 0.42764,0.184 1.20817,0.42787 1.7345,0.54193 0.52633,0.11406 1.14536,0.30297 1.37563,0.4198 0.23027,0.11682 0.95557,0.3287 1.61178,0.47083 0.65621,0.14213 1.43499,0.36542 1.73063,0.49619 0.29563,0.13077 1.2109,0.37176 2.03393,0.53552 0.82303,0.16376 1.7937,0.40373 2.15704,0.53325 0.36335,0.12953 1.33529,0.34155 2.15987,0.47116 0.82458,0.1296 1.73817,0.31995 2.03021,0.42299 0.65812,0.23219 2.25532,0.48762 4.07694,0.65198 0.76237,0.0688 1.65055,0.20563 1.97374,0.30409 0.76083,0.23177 4.31365,0.74067 5.85093,0.83807 0.65792,0.0417 1.7808,0.157 2.4953,0.25626 0.7145,0.0992 1.97949,0.2218 2.81109,0.27233 1.03076,0.0626 3.08541,0.27292 2.7979,0.35288 l 2.18308,-0.15766 3.11014,7.58577 c 1.58272,3.86032 -3.28332,7.80371 -4.09388,7.96068 -0.24231,0.0469 -3.53563,0.14641 -4.6928,0.053 z"
         id="path9"
         transform="scale(0.26458333)"
         sodipodi:nodetypes="sssssssssssssssssssssssssssssssssssssssssscsssssssssssssssssssssssssssssssssssssssssssssscssss" /><path
         style="fill:#ffffff;fill-opacity:1;stroke:#000000;stroke-width:4.91339;stroke-linecap:round;stroke-linejoin:round;stroke-dasharray:none;stroke-opacity:1"
         d="m 291.87426,705.51604 c -0.46054,-0.12711 -1.37127,-0.31369 -2.02384,-0.41463 -0.65257,-0.10094 -1.32544,-0.26092 -1.49526,-0.3555 -0.31402,-0.1749 -0.77701,-0.39023 -1.60951,-0.74856 -0.25487,-0.1097 -0.65253,-0.34976 -0.88369,-0.53347 -0.23117,-0.1837 -0.47105,-0.33401 -0.53307,-0.33401 -0.11445,0 -0.67071,-0.44298 -1.83299,-1.45972 -0.3537,-0.30941 -0.80232,-0.6449 -0.99694,-0.74554 -0.22118,-0.11438 -0.4059,-0.34069 -0.49266,-0.60358 -0.0763,-0.23133 -0.35195,-0.64242 -0.61244,-0.91355 -0.2605,-0.27113 -0.55498,-0.68764 -0.6544,-0.92559 -0.0994,-0.23795 -0.27936,-0.54102 -0.39987,-0.6735 -0.12051,-0.13248 -0.36482,-0.69842 -0.54293,-1.25765 -0.1781,-0.55923 -0.40621,-1.10872 -0.50691,-1.2211 -0.34242,-0.38213 -0.49426,-2.49287 -0.56816,-7.89815 -0.0393,-2.87737 -0.10524,-5.32661 -0.14646,-5.44274 -0.14393,-0.40558 -0.42868,-0.61984 -0.91959,-0.69196 -0.27204,-0.04 -3.32065,-0.0884 -6.7747,-0.10766 -6.66285,-0.0371 -7.38239,-0.0899 -8.12315,-0.59571 -0.23634,-0.16138 -0.74124,-0.38254 -1.12199,-0.49147 -0.38075,-0.10892 -0.78447,-0.29339 -0.89716,-0.40994 -0.11268,-0.11654 -0.47403,-0.36423 -0.80298,-0.55043 -0.57343,-0.32457 -1.26598,-0.86616 -2.03355,-1.59027 -0.19738,-0.18619 -0.50689,-0.42965 -0.68782,-0.54101 -0.18093,-0.11136 -0.32896,-0.27944 -0.32896,-0.37351 0,-0.0941 -0.21531,-0.34407 -0.47848,-0.55556 -0.26316,-0.21148 -0.47848,-0.45092 -0.47848,-0.53207 0,-0.0812 -0.23489,-0.46241 -0.52197,-0.84723 -0.28708,-0.38482 -0.58912,-0.91499 -0.67119,-1.17816 -0.0821,-0.26316 -0.27235,-0.69406 -0.42285,-0.95755 -0.15051,-0.26349 -0.3645,-0.93635 -0.47554,-1.49526 -0.11104,-0.5589 -0.28068,-1.39299 -0.37698,-1.85353 -0.34316,-1.64119 -0.34485,-3.06529 -0.006,-4.78482 0.1687,-0.85529 0.34241,-1.85113 0.38602,-2.21298 0.0436,-0.36185 0.22715,-1.00781 0.40789,-1.43545 0.18073,-0.42764 0.39972,-0.96594 0.48664,-1.19621 0.0869,-0.23027 0.45834,-0.81158 0.82537,-1.29181 0.36703,-0.48023 0.82023,-1.08776 1.0071,-1.35006 0.18687,-0.2623 0.48293,-0.5682 0.65791,-0.67978 0.17498,-0.11157 0.45974,-0.3384 0.63279,-0.50406 1.07067,-1.02491 1.98955,-1.65202 3.33378,-2.27523 1.76939,-0.82032 2.17689,-0.97655 2.96553,-1.13693 0.47968,-0.0976 1.36787,-0.23385 1.97374,-0.30286 1.4458,-0.1647 13.9079,-0.15479 19.07449,0.0152 l 3.9773,0.13083 0.80752,-0.53795 c 0.49993,-0.33303 1.55935,-1.32201 2.78126,-2.59632 1.08556,-1.13211 3.56171,-3.6641 5.50255,-5.62665 1.94084,-1.96255 3.63647,-3.68264 3.76805,-3.82243 0.13158,-0.13978 0.80445,-0.81411 1.49526,-1.4985 0.69081,-0.68439 1.33676,-1.32532 1.43544,-1.42428 0.2893,-0.29013 2.28958,-2.21657 3.12165,-3.00642 0.42131,-0.39993 1.41197,-1.41094 2.20147,-2.24669 0.7895,-0.83574 1.893,-1.99244 2.45222,-2.57044 0.55923,-0.578 1.34871,-1.39718 1.75441,-1.82041 0.4057,-0.42323 0.94975,-0.94374 1.209,-1.15669 l 0.47137,-0.38719 0.22644,0.25318 c 0.12455,0.13925 0.41485,0.37553 0.64512,0.52506 0.23027,0.14954 0.8224,0.65409 1.31583,1.12122 0.49344,0.46714 1.08556,1.02682 1.31583,1.24375 0.23027,0.21692 0.60707,0.52437 0.83734,0.68323 0.23027,0.15885 0.85303,0.66753 1.38392,1.13041 0.53088,0.46288 1.123,0.93591 1.31582,1.05118 0.19282,0.11527 0.70048,0.48374 1.12812,0.8188 0.42764,0.33507 1.04668,0.74446 1.37564,0.90976 0.32895,0.1653 0.73868,0.43227 0.91051,0.59327 0.17183,0.161 0.62937,0.45298 1.01678,0.64886 0.3874,0.19587 1.05425,0.56808 1.48189,0.82713 0.42765,0.25906 1.23509,0.69152 1.79431,0.96104 0.55923,0.26952 1.12517,0.59158 1.25765,0.71569 0.13248,0.12412 0.45546,0.31528 0.71773,0.42481 0.26226,0.10953 0.64284,0.34483 0.84573,0.52289 0.20288,0.17806 0.63352,0.39556 0.95696,0.48334 0.32345,0.0878 0.80222,0.31383 1.06395,0.50233 0.26172,0.18851 0.69236,0.39973 0.95696,0.4694 0.71525,0.1883 1.47279,0.66856 1.67678,1.06304 0.17262,0.33382 0.16701,0.35759 -0.13299,0.56354 -0.43449,0.29828 -1.15004,0.94498 -1.99187,1.80022 -0.0811,0.0824 -0.62468,0.59374 -1.20803,1.1364 -0.58334,0.54265 -1.21149,1.13902 -1.39588,1.32526 -0.18439,0.18624 -0.39,0.39153 -0.45691,0.4562 -0.15458,0.14939 -1.92849,1.92311 -2.05595,2.05572 -0.0525,0.0546 -0.49912,0.50299 -0.99256,0.99642 -0.98806,0.98806 -1.00666,1.00683 -1.42869,1.4422 -0.5601,0.57781 -0.74634,0.75569 -1.3827,1.32066 -0.35152,0.31208 -0.76937,0.76928 -0.92856,1.01599 -0.1592,0.24672 -0.36068,0.44858 -0.44775,0.44858 -0.0871,0 -0.34804,0.20186 -0.57994,0.44858 -0.2319,0.24672 -0.55025,0.56334 -0.70744,0.70362 -0.35148,0.31364 -0.76987,0.73049 -1.10735,1.10325 -0.14028,0.15493 -0.35316,0.37025 -0.47307,0.47848 -0.78883,0.71196 -1.87534,1.83311 -1.87534,1.93513 0,0.0669 -0.1359,0.17336 -0.302,0.23651 -0.1661,0.0632 -0.40863,0.29554 -0.53895,0.51643 -0.13033,0.22089 -0.36614,0.46047 -0.52402,0.53241 -0.15788,0.0719 -0.38202,0.29154 -0.49807,0.48801 -0.11606,0.19646 -0.33404,0.42305 -0.4844,0.50352 -0.15036,0.0805 -0.35909,0.32692 -0.46384,0.54767 -0.10475,0.22074 -0.24347,0.40135 -0.30827,0.40135 -0.17851,0 -1.78489,1.59042 -1.78489,1.76716 0,0.0848 -0.0942,0.18595 -0.20934,0.22465 -0.21259,0.0715 -0.65424,0.47259 -2.06516,1.87562 -0.35391,0.35193 -1.32482,1.27601 -1.97521,1.87994 -0.393,0.36493 -0.8222,0.786 -0.95379,0.93572 -0.13158,0.14971 -1.14059,1.15869 -2.24225,2.24217 -1.73289,1.70429 -2.01161,2.02979 -2.06676,2.41366 -0.0351,0.24404 -0.0794,5.31526 -0.0985,11.26937 -0.0384,11.93812 -0.087,12.87104 -0.71987,13.8036 -0.16457,0.24251 -0.39233,0.69444 -0.50614,1.00429 -0.11381,0.30985 -0.35386,0.72485 -0.53345,0.92222 -0.17958,0.19738 -0.43562,0.57694 -0.56896,0.84349 -0.20431,0.40838 -0.68673,0.99904 -1.34528,1.64708 -0.77883,0.76642 -1.09641,1.03435 -1.62873,1.37412 -0.34034,0.21724 -0.68323,0.4726 -0.76196,0.56747 -0.0787,0.0949 -0.41421,0.25298 -0.74551,0.35136 -0.33129,0.0984 -0.8766,0.33245 -1.21177,0.52014 -0.3877,0.21709 -1.02286,0.41617 -1.74582,0.54718 -0.62501,0.11327 -1.63583,0.31001 -2.24625,0.43721 -1.35924,0.28324 -1.76723,0.2812 -2.83762,-0.0142 z"
         id="path10"
         transform="scale(0.26458333)" /><path
         style="fill:#ffffff;fill-opacity:1;stroke:#000000;stroke-width:4.91339;stroke-linecap:round;stroke-linejoin:round;stroke-dasharray:none;stroke-opacity:1"
         d="m 278.65618,639.81168 c -0.29606,-0.0588 -3.90262,-0.11485 -8.01458,-0.12447 l -7.47629,-0.0175 -0.55658,-0.27348 c -0.4562,-0.22415 -0.61206,-0.39065 -0.8642,-0.92316 -0.16918,-0.35733 -0.47047,-0.87451 -0.66952,-1.14929 -0.19906,-0.27479 -0.36192,-0.56815 -0.36192,-0.65192 0,-0.0838 -0.1363,-0.31429 -0.30289,-0.51227 -0.16659,-0.19799 -0.4614,-0.70954 -0.65512,-1.13679 -0.19373,-0.42725 -0.41,-0.81253 -0.48061,-0.85617 -0.0706,-0.0436 -0.34405,-0.51859 -0.60764,-1.05546 -0.71265,-1.45146 -1.21791,-2.39687 -1.45093,-2.71487 -0.1142,-0.15585 -0.32105,-0.62416 -0.45966,-1.0407 -0.13862,-0.41654 -0.37229,-0.90358 -0.51926,-1.08231 -0.14698,-0.17873 -0.36083,-0.5672 -0.47523,-0.86326 -0.1144,-0.29606 -0.34119,-0.74223 -0.50398,-0.99149 -0.16278,-0.24926 -0.39385,-0.76766 -0.51347,-1.152 -0.11962,-0.38434 -0.35294,-0.88018 -0.5185,-1.10187 -0.16555,-0.22168 -0.39678,-0.69913 -0.51384,-1.06098 -0.11705,-0.36185 -0.36211,-0.95397 -0.54458,-1.31582 -0.18246,-0.36186 -0.36915,-0.81941 -0.41485,-1.01678 -0.0457,-0.19737 -0.24494,-0.68184 -0.44274,-1.07658 -0.19781,-0.39475 -0.45804,-1.05915 -0.57829,-1.47645 -0.12026,-0.41729 -0.32096,-0.93213 -0.44601,-1.14407 -0.12505,-0.21194 -0.35014,-0.7587 -0.50019,-1.21502 -0.15006,-0.45632 -0.39638,-1.04499 -0.54739,-1.30815 -0.151,-0.26317 -0.3611,-0.85529 -0.46688,-1.31583 -0.10578,-0.46054 -0.34982,-1.18723 -0.54232,-1.61488 -0.1925,-0.42764 -0.43668,-1.12419 -0.54263,-1.54789 -0.10594,-0.4237 -0.29004,-0.96199 -0.40912,-1.1962 -0.11908,-0.23422 -0.35927,-0.96332 -0.53376,-1.62022 -0.17449,-0.6569 -0.40037,-1.32121 -0.50196,-1.47625 -0.10158,-0.15504 -0.31204,-0.88256 -0.46767,-1.61672 -0.15564,-0.73416 -0.41543,-1.68639 -0.57732,-2.11608 -0.16189,-0.42968 -0.37795,-1.26404 -0.48014,-1.85412 -0.10219,-0.59008 -0.31819,-1.39784 -0.47998,-1.79502 -0.17811,-0.43722 -0.36898,-1.29707 -0.48375,-2.17927 -0.10426,-0.80142 -0.32264,-1.87839 -0.4853,-2.39327 -0.16265,-0.51488 -0.40546,-1.79083 -0.53959,-2.83544 -0.13413,-1.04462 -0.32479,-2.21158 -0.42369,-2.59326 -0.33683,-1.29987 -0.53239,-3.03003 -0.53309,-4.7165 -7.1e-4,-1.69696 -0.218,-3.59234 -0.52841,-4.60919 -0.1804,-0.59096 -0.34998,-2.87306 -0.55454,-7.46288 l -0.12792,-2.87013 -0.6543,-5.72501 c -0.0389,-0.34045 0.33148,-8.48323 1.20509,-8.43974 2.69444,0.13415 15.2495,-4.11643 15.18434,-2.88376 l -0.29316,13.27993 0.0689,2.1592 0.15352,2.58211 0.13366,3.16128 c 0.16981,4.01628 0.31932,5.75863 0.61001,7.10877 0.12749,0.59212 0.28332,1.53413 0.34631,2.09336 0.15061,1.33731 0.53582,3.4926 0.77051,4.31109 0.10301,0.35924 0.31962,1.54135 0.48135,2.6269 0.16174,1.08556 0.37699,2.17068 0.47833,2.41139 0.10133,0.2407 0.29768,1.07505 0.43632,1.85412 0.13864,0.77906 0.37916,1.73945 0.53448,2.13419 0.15531,0.39475 0.3714,1.22911 0.4802,1.85412 0.10879,0.62502 0.30553,1.45937 0.43719,1.85412 0.13167,0.39475 0.41376,1.39059 0.62687,2.21298 0.21311,0.8224 0.47673,1.66705 0.58581,1.87701 0.10908,0.20997 0.30626,0.84466 0.43818,1.41042 0.13192,0.56577 0.35352,1.25148 0.49244,1.52379 0.13893,0.27232 0.38299,0.94488 0.54235,1.49459 0.15937,0.5497 0.39672,1.20467 0.52745,1.45548 0.13073,0.25081 0.34388,0.83922 0.47367,1.30758 0.12979,0.46835 0.34316,1.0278 0.47415,1.24321 0.131,0.21541 0.32607,0.79589 0.43348,1.28996 0.10741,0.49408 0.34403,1.16746 0.52583,1.49642 0.1818,0.32896 0.39717,0.81342 0.47861,1.07658 0.0814,0.26317 0.29675,0.74763 0.47848,1.07659 0.18173,0.32896 0.39664,0.81342 0.47758,1.07659 0.0809,0.26316 0.32452,0.80145 0.54127,1.1962 0.21676,0.39475 0.50547,1.03495 0.64157,1.42268 0.13609,0.38773 0.32912,0.7952 0.42893,0.9055 0.0998,0.11029 0.29052,0.51976 0.42377,0.90992 0.13326,0.39016 0.34829,0.85424 0.47784,1.0313 0.12956,0.17706 0.36876,0.67583 0.53157,1.10837 0.16281,0.43255 0.43269,0.96563 0.59973,1.18463 0.16703,0.219 0.3037,0.45497 0.3037,0.52439 0,0.0694 0.1939,0.41423 0.43089,0.76624 0.23699,0.35202 0.58847,0.96301 0.78107,1.35776 0.32974,0.67583 0.89687,1.71997 1.71875,3.16435 0.19737,0.34687 0.47466,0.77409 0.61621,0.94939 0.14154,0.17529 0.39773,0.66421 0.56932,1.08649 0.17159,0.42227 0.41305,0.87836 0.53659,1.01353 0.12354,0.13516 0.33758,0.47087 0.47565,0.74602 0.13807,0.27515 0.30958,0.53646 0.38115,0.58069 0.15916,0.0984 1.10969,1.51387 1.63308,2.43194 0.29617,0.51949 0.37836,0.79611 0.35887,1.20778 -0.0233,0.49075 -0.0543,0.53948 -0.38415,0.60224 -0.19738,0.0376 -0.6011,0.0201 -0.89716,-0.0387 z"
         id="path11"
         transform="scale(0.26458333)"
         sodipodi:nodetypes="sscsssssssssssssssssssssssssssssssssssssssscssscccssssssssssssssssssssssssssssssssssssssssssss" /><path
         style="fill:#ffffff;fill-opacity:1;stroke:#000000;stroke-width:4.91339;stroke-linecap:round;stroke-linejoin:round;stroke-dasharray:none;stroke-opacity:1"
         d="m 240.87644,561.07291 c -0.20349,0.58244 0.54592,-7.45129 1.03759,-10.41202 0.12565,-0.7566 0.71835,-5.43804 0.85191,-6.83655 0.13356,-1.39851 0.37231,-3.20179 0.53054,-4.00729 0.15824,-0.8055 0.34895,-1.94901 0.42382,-2.54114 0.0749,-0.59212 0.26656,-1.61487 0.426,-2.27279 0.15944,-0.65791 0.40531,-1.9229 0.54637,-2.81108 0.14106,-0.88818 0.38294,-1.93786 0.53751,-2.3326 0.15457,-0.39475 0.39539,-1.33676 0.53515,-2.09336 0.13976,-0.7566 0.3598,-1.6717 0.48897,-2.03355 0.12918,-0.36186 0.3421,-1.24421 0.47316,-1.96079 0.13106,-0.71657 0.37293,-1.58747 0.53749,-1.93532 0.16456,-0.34785 0.37912,-1.02655 0.4768,-1.50822 0.0977,-0.48166 0.30466,-1.17182 0.45994,-1.53367 0.15528,-0.36185 0.37696,-1.06163 0.49262,-1.55507 0.11566,-0.49343 0.33515,-1.14694 0.48774,-1.45223 0.15259,-0.3053 0.3684,-0.92433 0.47958,-1.37564 0.11117,-0.45131 0.348,-1.11662 0.52627,-1.47847 0.17828,-0.36185 0.41982,-0.95397 0.53676,-1.31582 0.11695,-0.36186 0.33328,-0.90015 0.48075,-1.19621 0.14746,-0.29606 0.38426,-0.96893 0.52621,-1.49526 0.14196,-0.52633 0.36302,-1.10183 0.49126,-1.27888 0.12823,-0.17706 0.36912,-0.68317 0.53531,-1.12469 0.16619,-0.44151 0.40401,-0.96951 0.52851,-1.17333 0.12449,-0.20382 0.31045,-0.65699 0.41325,-1.00706 0.1028,-0.35006 0.34533,-0.91527 0.53897,-1.25601 0.19364,-0.34075 0.41474,-0.86177 0.49133,-1.15783 0.0766,-0.29606 0.25971,-0.7267 0.40692,-0.95697 0.14721,-0.23027 0.38897,-0.72151 0.53725,-1.09165 0.14827,-0.37014 0.42601,-0.82284 0.6172,-1.00601 0.20041,-0.19201 0.45251,-0.64828 0.59536,-1.07752 0.13626,-0.40947 0.35435,-0.84097 0.48464,-0.95888 0.13029,-0.11792 0.31885,-0.49629 0.41901,-0.84084 0.10016,-0.34455 0.33764,-0.84115 0.52773,-1.10356 0.19009,-0.26241 0.40206,-0.68427 0.47104,-0.93747 0.069,-0.25319 0.26807,-0.62184 0.44242,-0.81922 0.17434,-0.19737 0.44587,-0.63611 0.60341,-0.97498 0.15753,-0.33887 0.36986,-0.68538 0.47185,-0.77002 0.10199,-0.0847 0.32159,-0.42643 0.48801,-0.75952 0.16641,-0.33308 0.42476,-0.74019 0.57409,-0.90466 0.14934,-0.16448 0.36002,-0.5682 0.46819,-0.89716 0.12598,-0.38313 0.40352,-0.81307 0.77219,-1.1962 l 0.57552,-0.59811 h 8.56689 c 5.55673,0 8.60631,0.042 8.67907,0.11962 0.32574,0.34734 0.27111,0.64979 -0.21204,1.17394 -0.26619,0.28879 -0.5902,0.76517 -0.72001,1.05864 -0.12981,0.29346 -0.35145,0.63788 -0.49253,0.76537 -0.14109,0.1275 -0.38107,0.47742 -0.53331,0.77762 -0.15223,0.30019 -0.37043,0.62317 -0.48489,0.71772 -0.11446,0.0946 -0.3333,0.45452 -0.48631,0.79992 -0.15301,0.34541 -0.33203,0.62801 -0.39782,0.62801 -0.0658,0 -0.30277,0.36335 -0.52661,0.80744 -0.22384,0.44409 -0.52502,0.91401 -0.66929,1.04425 -0.14427,0.13025 -0.34147,0.42631 -0.43821,0.65792 -0.0967,0.2316 -0.30474,0.55567 -0.4622,0.72015 -0.15746,0.16448 -0.40382,0.5682 -0.54746,0.89715 -0.14364,0.32896 -0.35744,0.6903 -0.47511,0.80299 -0.11767,0.11268 -0.30293,0.5164 -0.4117,0.89715 -0.10876,0.38075 -0.31863,0.88068 -0.46637,1.11095 -0.14774,0.23027 -0.36274,0.6609 -0.47777,0.95696 -0.11503,0.29606 -0.33013,0.7267 -0.478,0.95697 -0.14787,0.23027 -0.39503,0.76856 -0.54925,1.1962 -0.15422,0.42765 -0.37471,0.8852 -0.48999,1.01678 -0.11527,0.13158 -0.34514,0.57533 -0.51081,0.9861 -0.16568,0.41077 -0.40523,0.89524 -0.53234,1.07659 -0.1271,0.18134 -0.32567,0.62578 -0.44126,0.98763 -0.11559,0.36186 -0.35882,0.90015 -0.5405,1.19621 -0.18169,0.29606 -0.44398,0.92146 -0.58286,1.38978 -0.13889,0.46832 -0.33067,0.91634 -0.42618,0.99561 -0.0955,0.0793 -0.32064,0.53045 -0.50028,1.00263 -0.17965,0.47218 -0.42813,0.99697 -0.55218,1.1662 -0.12406,0.16922 -0.3342,0.73179 -0.46699,1.25013 -0.13279,0.51835 -0.33566,1.07967 -0.45083,1.24739 -0.24437,0.35586 -0.40228,0.76173 -0.6646,1.70815 -0.1045,0.37703 -0.2909,0.86149 -0.41423,1.07659 -0.12332,0.21509 -0.31437,0.76789 -0.42454,1.22842 -0.11018,0.46054 -0.33194,1.09375 -0.49281,1.40713 -0.16087,0.31337 -0.37268,0.95098 -0.47069,1.41691 -0.098,0.46592 -0.31016,1.17845 -0.47144,1.58339 -0.298,0.74822 -0.66223,2.02776 -0.66223,2.32644 0,0.0903 -0.15789,0.55858 -0.35086,1.04051 -0.19297,0.48192 -0.46345,1.50511 -0.60106,2.27374 -0.13762,0.76863 -0.33289,1.59446 -0.43395,1.83516 -0.21837,0.52014 -0.58961,2.0899 -0.71014,3.00274 -0.0473,0.35814 -0.18963,0.95026 -0.31632,1.31583 -0.12668,0.36556 -0.36433,1.63359 -0.5281,2.81783 -0.16377,1.18424 -0.37405,2.3954 -0.46728,2.69146 -0.24901,0.79068 -0.39142,1.73378 -0.60275,3.99145 -0.10387,1.10974 -0.29001,2.59004 -0.41363,3.28956 -0.28666,1.62204 -0.34585,2.17486 -0.47557,4.44181 -0.0584,1.01977 -0.19616,2.5425 -0.23191,2.73288 l -0.50644,2.69732 h -7.5701 l -7.68971,0.65791 z"
         id="path12"
         transform="scale(0.26458333)"
         sodipodi:nodetypes="sssssssssssssssssssssssssssssssssssssssssscssssssssssssssssssssssssssssssssssssssssssssssssscccs" /><path
         style="fill:#ffffff;fill-opacity:1;stroke:#000000;stroke-width:4.91339;stroke-linecap:round;stroke-linejoin:round;stroke-dasharray:none;stroke-opacity:1"
         d="m 536.25217,557.07705 c 0.0271,-0.54201 -0.0625,-2.5513 -0.24586,-4.60932 -0.34987,-3.92818 -0.52068,-5.40227 -0.70689,-6.10065 -0.10525,-0.39475 -0.31881,-1.84814 -0.47459,-3.22976 -0.28251,-2.50579 -0.41769,-3.31265 -0.66313,-3.95819 -0.0714,-0.18766 -0.23571,-1.10591 -0.36525,-2.04056 -0.12954,-0.93464 -0.38955,-2.25502 -0.5778,-2.93417 -0.18824,-0.67916 -0.40457,-1.60368 -0.48073,-2.0545 -0.0762,-0.45081 -0.27146,-1.17299 -0.43401,-1.60483 -0.16254,-0.43184 -0.39979,-1.36415 -0.52721,-2.07179 -0.12742,-0.70764 -0.36283,-1.60034 -0.52313,-1.98378 -0.1603,-0.38344 -0.38533,-1.1278 -0.50008,-1.65413 -0.11474,-0.52633 -0.3366,-1.21217 -0.493,-1.52409 -0.15641,-0.31192 -0.36499,-0.93096 -0.46351,-1.37564 -0.0985,-0.44468 -0.33684,-1.1584 -0.52961,-1.58604 -0.19276,-0.42764 -0.48447,-1.18125 -0.64824,-1.67469 -0.77593,-2.33791 -1.16357,-3.40886 -1.32061,-3.64854 -0.0941,-0.14368 -0.3098,-0.71381 -0.47924,-1.26696 -0.16944,-0.55314 -0.41848,-1.18607 -0.55344,-1.40651 -0.13495,-0.22043 -0.37925,-0.75649 -0.54289,-1.19123 -0.16364,-0.43475 -0.37045,-0.87343 -0.45958,-0.97485 -0.0891,-0.10142 -0.30405,-0.5818 -0.47761,-1.06752 -0.17355,-0.48571 -0.41432,-1.024 -0.53504,-1.1962 -0.12072,-0.1722 -0.28712,-0.52841 -0.36979,-0.79158 -0.0827,-0.26316 -0.35333,-0.85528 -0.60147,-1.31582 -0.24814,-0.46054 -0.49127,-0.97192 -0.54028,-1.1364 -0.049,-0.16448 -0.24216,-0.51437 -0.4292,-0.77753 -0.18703,-0.26317 -0.44404,-0.78217 -0.57112,-1.15333 -0.12708,-0.37117 -0.42436,-0.95588 -0.66063,-1.29935 -0.23627,-0.34347 -0.42958,-0.67688 -0.42958,-0.74091 0,-0.064 -0.1884,-0.49886 -0.41867,-0.96627 -0.23027,-0.46742 -0.41867,-0.91849 -0.41867,-1.00239 0,-0.0839 -0.15463,-0.32936 -0.34361,-0.54547 -0.18898,-0.21612 -0.46678,-0.68899 -0.61732,-1.05085 -0.15055,-0.36185 -0.42656,-0.82196 -0.61336,-1.02247 -0.18681,-0.2005 -0.33964,-0.42515 -0.33964,-0.49922 0,-0.0741 -0.18971,-0.3832 -0.42158,-0.68697 -0.23187,-0.30376 -0.50747,-0.77889 -0.61244,-1.05584 -0.10498,-0.27695 -0.31308,-0.617 -0.46245,-0.75566 -0.14937,-0.13866 -0.38337,-0.50483 -0.52,-0.81371 -0.13663,-0.30888 -0.4386,-0.78378 -0.67105,-1.05534 -0.23244,-0.27156 -0.42262,-0.55541 -0.42262,-0.63079 0,-0.0754 -0.13981,-0.26755 -0.31069,-0.42705 -0.17088,-0.15949 -0.41026,-0.48411 -0.53195,-0.72137 -0.12169,-0.23726 -0.46044,-0.71159 -0.75277,-1.05406 -0.55182,-0.64648 -0.5988,-0.91463 -0.21688,-1.23812 0.15891,-0.1346 0.5124,-0.15113 1.81229,-0.0847 0.88818,0.0454 4.63864,0.0571 8.33436,0.0261 l 6.71947,-0.0564 0.66529,0.33687 c 0.65709,0.33271 0.66916,0.34848 0.97884,1.27838 0.17246,0.51784 0.38565,0.96918 0.47377,1.003 0.0881,0.0338 0.30004,0.4274 0.47094,0.87465 0.1709,0.44725 0.41377,0.90642 0.53969,1.02038 0.12593,0.11396 0.34401,0.55293 0.48463,0.97549 0.16394,0.49266 0.35889,0.83591 0.54342,0.95682 0.15826,0.1037 0.28775,0.2564 0.28775,0.33933 0,0.23162 0.56831,1.46385 0.71772,1.55619 0.0728,0.045 0.25606,0.3615 0.40724,0.70335 0.15118,0.34185 0.41876,0.7768 0.59462,0.96655 0.17586,0.18976 0.35019,0.48378 0.38741,0.65338 0.16612,0.75706 0.32608,1.10704 0.58288,1.2753 0.15185,0.0995 0.39422,0.46094 0.53859,0.8032 0.14436,0.34226 0.3918,0.81312 0.54984,1.04636 0.15805,0.23324 0.41785,0.75703 0.57734,1.16398 0.15948,0.40695 0.39456,0.88898 0.5224,1.07119 0.12784,0.1822 0.30117,0.54659 0.38518,0.80976 0.084,0.26316 0.32628,0.82837 0.53838,1.25601 0.21209,0.42765 0.45267,0.99285 0.53462,1.25602 0.082,0.26316 0.27559,0.66688 0.43032,0.89715 0.15472,0.23027 0.36754,0.75578 0.47292,1.16779 0.10538,0.41201 0.32488,1.04022 0.48777,1.39602 0.1629,0.3558 0.43285,1.1222 0.5999,1.70311 0.16706,0.58091 0.37707,1.17036 0.4667,1.30988 0.0896,0.13952 0.29452,0.70749 0.45533,1.26215 0.1608,0.55465 0.42483,1.27485 0.58674,1.60043 0.16192,0.32559 0.38934,0.9957 0.50539,1.48913 0.11605,0.49344 0.33185,1.1663 0.47954,1.49526 0.1477,0.32896 0.35582,0.98871 0.4625,1.46612 0.10668,0.47742 0.3302,1.156 0.49671,1.50798 0.16651,0.35197 0.40678,1.21684 0.53393,1.92193 0.12715,0.7051 0.33473,1.48064 0.46128,1.72344 0.12656,0.24279 0.35158,1.00591 0.50006,1.69581 0.14848,0.6899 0.39207,1.63273 0.54132,2.09517 0.14925,0.46244 0.33734,1.35062 0.41798,1.97374 0.0806,0.62312 0.25312,1.56357 0.38329,2.0899 0.35533,1.43666 0.5368,2.39688 0.74925,3.9644 0.10574,0.78019 0.26692,1.68768 0.35818,2.01663 0.2115,0.7624 0.37163,1.90615 0.60291,4.30634 0.10144,1.05267 0.28729,2.45223 0.413,3.11014 0.25143,1.31587 0.45224,3.43561 0.59491,6.28008 0.0827,1.64938 -0.35464,5.64536 -0.35074,5.32312 l -0.14469,0.65791 -6.327,3.19554 c -5.25701,2.65514 -8.62119,-3.50117 -8.60676,-3.78975 z"
         id="path13"
         transform="scale(0.26458333)"
         sodipodi:nodetypes="sssssssssssssssssssssssssssssssssssssssssssssssscssssssssssssssssssssssssssssssssssssssssssscsss" /><path
         style="display:inline;fill:#ffffff;fill-opacity:1;stroke:#000000;stroke-width:4.91339;stroke-linecap:round;stroke-linejoin:round;stroke-dasharray:none;stroke-opacity:1"
         d="m 391.54162,666.37684 c -1.07855,-0.78865 -3.27789,-6.49402 -6.33325,-16.42927 -0.76974,-2.50298 -1.47588,-3.72236 -1.90633,-3.29191 -0.1212,0.12119 -0.42318,2.09141 -0.67107,4.37825 -1.14959,10.60539 -1.50248,12.84735 -2.05074,13.02876 -0.42946,0.14211 -2.03675,-2.52336 -3.10494,-5.14914 -0.37851,-0.93043 -1.40336,-3.97547 -2.27744,-6.76676 -1.66219,-5.30802 -3.80031,-11.71402 -3.96461,-11.87832 -0.82842,-0.82842 -1.57478,4.93236 -1.59114,12.28127 -0.004,1.90541 -0.15778,3.54077 -0.34318,3.65535 -0.37035,0.22889 -1.01004,-0.3694 -3.61802,-3.38389 -0.96488,-1.11527 -2.15831,-2.48452 -2.65207,-3.04278 -0.49376,-0.55826 -1.49327,-1.75188 -2.22115,-2.6525 l -1.3234,-1.63749 0.005,-9.52767 c 0.003,-5.24022 0.14154,-9.74309 0.3082,-10.00638 0.25905,-0.40925 0.5661,-0.39597 2.11586,0.0915 0.99706,0.31361 2.30845,0.8716 2.91419,1.23997 1.48581,0.90358 2.08982,0.87351 1.83799,-0.0915 -0.10927,-0.41869 -0.36146,-0.92522 -0.56042,-1.12563 -0.19896,-0.2004 -0.821,-0.88553 -1.3823,-1.52252 -2.53501,-2.87679 -6.40341,-4.94908 -10.91274,-5.8459 -3.51448,-0.69895 -10.65219,-0.73016 -14.79542,-0.0647 -1.67478,0.269 -4.1913,0.59084 -5.59228,0.7152 l -2.54724,0.2261 -2.49618,-2.49283 c -2.98399,-2.97999 -6.23595,-6.64152 -8.97509,-10.10544 -1.10363,-1.39565 -2.09481,-2.61366 -2.20263,-2.70671 -0.78781,-0.67982 -2.37776,-3.09019 -2.37776,-3.60469 0,-0.3473 0.34707,-1.01052 0.77126,-1.47384 1.94243,-2.12155 5.96375,-9.18387 6.01035,-10.5555 0.008,-0.24036 0.23201,-1.04604 0.49742,-1.79038 0.26541,-0.74435 0.64487,-2.87588 0.84323,-4.73674 0.63896,-5.99409 0.24851,-5.30437 4.10308,-7.24779 1.8743,-0.94499 3.61764,-1.71817 3.87408,-1.71817 0.25644,0 0.56089,0.4187 0.67654,0.93043 2.91363,12.89189 10.78676,20.37419 23.94843,22.7596 8.17451,1.48154 18.95243,-0.58889 25.25155,-4.8508 6.31893,-4.27532 9.49063,-9.06058 11.33359,-17.09938 0.78642,-3.43025 0.37081,-3.70114 -1.91953,-1.25113 -3.20753,3.43114 -6.67,5.60137 -8.93666,5.60137 -3.6741,0 -13.74732,-5.78634 -26.46553,-15.20256 -1.61688,-1.19709 -3.11002,-2.33898 -3.31809,-2.53753 -0.20808,-0.19855 -1.34997,-1.14604 -2.53754,-2.10554 -6.9938,-5.65063 -8.76319,-7.0759 -10.36317,-8.34766 -2.33207,-1.85367 -2.46979,-2.29319 -6.37942,-20.35823 -0.28191,-1.30261 -0.6451,-2.97738 -0.8071,-3.72172 -0.43418,-1.99493 -0.97877,-3.27897 -1.30513,-3.07727 -0.15811,0.0977 -0.38644,1.57198 -0.5074,3.27614 -0.12097,1.70415 -0.36997,4.03134 -0.55333,5.17152 -0.18337,1.14017 -0.49101,3.21494 -0.68366,4.61058 -0.33412,2.42064 -0.88049,5.35139 -1.65973,8.90287 -0.63528,2.89539 -5.12231,11.41663 -6.44071,12.23145 -0.44463,0.2748 -1.01217,-0.83818 -2.15058,-4.21741 -2.48153,-7.36611 -2.99869,-10.40017 -3.17183,-18.6086 -0.12637,-5.9908 -0.0548,-7.37392 0.52517,-10.15014 1.35431,-6.48275 2.45975,-9.8503 5.33106,-16.24023 1.7335,-3.85781 5.83432,-10.61317 7.73043,-12.73449 0.18934,-0.21183 0.95326,-1.20114 1.69761,-2.19848 2.21209,-2.96395 10.13526,-10.76072 13.7061,-13.48744 4.82126,-3.68155 14.17756,-9.04011 20.29688,-11.62447 1.53883,-0.6499 8.77394,-3.05523 11.16516,-3.71189 4.86783,-1.33678 14.25369,-1.97966 14.98487,-2.03405 0.78475,-0.0584 12.1197,-0.36433 12.67872,-0.34277 0.75232,0.029 11.96971,1.49554 15.98204,2.6681 1.02347,0.29909 2.46987,0.69357 3.21421,0.87662 4.36322,1.07298 12.64116,4.63423 18.13082,7.80005 2.34344,1.35144 8.98113,5.95336 11.47041,7.95247 7.78361,6.25091 14.81362,14.86767 19.68627,24.12968 1.67034,3.17502 5.01577,11.55 5.01577,12.55653 0,0.30852 0.22059,1.30164 0.4902,2.20691 1.14682,3.85074 1.53983,7.27281 1.5401,13.41008 2.6e-4,6.28208 -0.26761,8.53001 -1.75983,14.76843 -0.3748,1.56688 -0.97729,3.69841 -1.33886,4.73673 -0.36157,1.03832 -0.80495,2.36753 -0.9853,2.9538 -0.58661,1.90699 -1.20137,1.66574 -2.76521,-1.08512 -4.40023,-7.74015 -4.66482,-8.71454 -7.57442,-27.89372 -0.59976,-3.95339 -0.98045,-5.07573 -1.26076,-3.71694 -0.0954,0.46259 -0.42207,2.05909 -0.72587,3.54777 -0.3038,1.48869 -0.77594,3.77247 -1.0492,5.07508 -0.52388,2.49723 -2.19355,9.54513 -3.00574,12.68768 -0.26452,1.02347 -0.56432,2.26897 -0.66621,2.76777 -0.21944,1.07424 -1.40864,2.32135 -5.26515,5.52151 -4.44487,3.68839 -5.87313,4.80726 -11.22932,8.79679 -11.13238,8.29189 -17.15946,12.27783 -22.76077,15.05259 -5.73333,2.84015 -8.06944,2.25651 -14.04802,-3.5097 -1.02347,-0.98712 -2.14169,-1.89536 -2.48493,-2.01832 -0.57306,-0.2053 -0.60443,-0.0808 -0.38388,1.52277 0.36872,2.68094 1.34101,5.7742 2.70887,8.61811 0.98886,2.05593 1.91655,3.26292 4.5519,5.92232 1.82045,1.83708 3.4903,3.34014 3.71078,3.34014 0.22047,0 0.88553,0.36414 1.47789,0.80919 4.56189,3.4274 15.3337,5.85946 22.13297,4.99718 6.35039,-0.80535 9.76178,-1.86497 14.10887,-4.3824 3.00463,-1.74 7.58827,-6.48651 8.88986,-9.20574 1.40114,-2.9272 2.66259,-6.57267 2.94579,-8.51308 0.12659,-0.86742 0.44384,-1.65912 0.70498,-1.75933 0.34788,-0.1335 6.24562,2.61359 7.21767,3.36189 0.0618,0.0476 0.32516,1.8122 0.58527,3.92142 0.51135,4.14644 1.25038,7.0381 2.64018,10.3304 0.89595,2.12242 2.51272,5.20516 2.89268,5.51554 0.51729,0.42257 2.73549,3.94385 2.73549,4.34245 0,0.70814 -5.31133,7.42562 -8.09596,10.23933 -0.4785,0.4835 -1.51814,1.63764 -2.31031,2.56478 -0.79217,0.92714 -2.31382,2.58038 -3.38145,3.67388 -1.89198,1.93785 -1.98401,1.98652 -3.63476,1.9224 -0.93149,-0.0362 -3.32537,-0.31343 -5.31973,-0.61611 -4.89838,-0.74341 -14.29569,-0.50104 -17.52003,0.45186 -4.32177,1.27723 -8.6367,3.96301 -10.57412,6.58173 -1.77994,2.40588 -1.45102,3.04714 0.9171,1.788 1.81522,-0.96516 4.29268,-1.60266 5.06963,-1.30452 0.46027,0.17662 0.52734,1.41334 0.52733,9.72421 v 9.52186 l -1.43794,1.7783 c -3.71758,4.59755 -7.57958,8.83515 -8.07118,8.85615 -0.68516,0.0293 -0.97198,-2.63577 -0.98068,-9.11193 -0.006,-4.54592 -0.23582,-7.11301 -0.63504,-7.09637 -0.33816,0.0141 -1.22826,2.25553 -2.54933,6.41969 -1.15089,3.62774 -2.43026,7.25013 -3.4056,9.64264 -0.22758,0.55826 -0.99175,2.4963 -1.69814,4.30677 -0.70639,1.81046 -1.55909,3.54038 -1.89489,3.84428 -0.57102,0.51676 -0.62072,0.50079 -0.76774,-0.24671 -0.65923,-3.35174 -1.47641,-10.02026 -1.80683,-14.74448 -0.0948,-1.35508 -0.36117,-2.59975 -0.59857,-2.79678 -0.43623,-0.36204 -0.83864,0.5579 -2.36547,5.40769 -0.32221,1.02348 -0.79879,2.34063 -1.05908,2.92701 -0.26028,0.58638 -0.47323,1.35525 -0.47323,1.70861 0,0.35335 -0.13025,0.7871 -0.28943,0.96388 -0.15919,0.17678 -0.55334,1.15881 -0.87588,2.18228 -0.85243,2.70486 -2.92791,7.44344 -3.2602,7.44344 -0.27568,0 -0.80822,-1.6089 -1.34385,-4.06006 -0.95602,-4.37491 -2.01596,-9.82278 -2.50145,-12.85685 -0.31264,-1.9539 -0.68459,-4.16156 -0.82654,-4.9059 l -0.25809,-1.35335 -0.57901,1.90582 c -0.31846,1.04821 -0.79319,3.10361 -1.05495,4.56757 -0.43246,2.4186 -1.08406,5.87004 -1.87581,9.93601 -0.46293,2.3773 -1.37914,6.57535 -1.45067,6.64688 -0.0355,0.0355 -0.33061,-0.12999 -0.65578,-0.36776 z m -2.0944,-38.00351 c 0.1971,-0.13671 1.49124,-1.64451 2.87587,-3.35066 3.31581,-4.08575 3.70171,-4.5984 3.70171,-4.91767 0,-0.80182 1.33754,-0.0422 2.36836,1.34503 2.88825,3.88689 5.86307,7.18224 6.48363,7.18224 0.35873,0 0.98922,-0.34257 1.4011,-0.76126 2.35363,-2.39259 5.31046,-6.90351 5.31046,-8.1016 0,-2.96617 -11.65854,-22.8582 -14.32135,-24.43536 -0.52108,-0.30864 -0.83361,-0.12635 -1.98162,1.15579 -3.74005,4.17704 -11.52493,17.51191 -12.94507,22.17386 -0.6929,2.27458 0.42969,4.58164 3.88268,7.97945 1.89629,1.86599 2.53462,2.20853 3.22423,1.73018 z"
         id="path14"
         transform="scale(0.26458333)"
         inkscape:label="path14"
         sodipodi:insensitive="true"
         sodipodi:nodetypes="cssssssscssssccssssssssscssssscssssssssssssssssssssssssssssssssssssssssssssssssssssssssssssssssssssssssssssssssscsssssssssssssssssssscssssccssssssssssss" /></g><g
       id="g26"
       inkscape:label="red"
       style="display:inline"><path
         style="fill:#f70000;fill-opacity:1;stroke:#000000;stroke-width:0;stroke-linecap:round;stroke-linejoin:round;stroke-dasharray:none;stroke-opacity:1"
         d="m 394.76362,511.13881 c -0.75784,-2.30269 -2.41601,-7.30882 -3.68482,-11.12471 -1.26882,-3.8159 -2.30805,-7.5387 -2.3094,-8.27289 -0.001,-0.73419 0.46535,-2.2414 1.03712,-3.34937 1.3997,-2.71233 1.51774,-6.40616 0.76771,-24.02468 l -0.61108,-14.35447 -3.20638,-0.43135 c -2.02335,-0.27219 -3.30335,-0.68405 -3.46921,-1.11627 -0.15874,-0.41366 1.1585,-2.28243 3.326,-4.71861 l 3.58883,-4.03369 0.004,-4.18045 c 0.002,-2.29924 0.14307,-9.59057 0.31314,-16.20295 0.17008,-6.61238 0.15702,-12.41917 -0.029,-12.90397 -0.18604,-0.48481 -0.38078,-5.8375 -0.43276,-11.89488 l -0.0945,-11.01341 -1.31583,-0.63095 c -1.68117,-0.80613 -1.74334,-2.61925 -0.19676,-5.73832 0.91704,-1.84946 4.68228,-11.20196 6.59792,-16.38865 0.28211,-0.76381 0.85499,-1.24643 1.54761,-1.30375 0.93704,-0.0776 1.31735,0.42028 2.57132,3.36591 2.62994,6.17784 6.73002,16.3822 6.87303,17.10573 0.22467,1.13665 -0.53421,2.85883 -1.25975,2.85883 -1.44034,0 -1.69222,1.90768 -1.6411,12.42948 0.0281,5.78433 -0.0974,10.75727 -0.27893,11.05097 -0.39417,0.63778 0.24854,31.91213 0.67938,33.0588 0.26952,0.71733 1.65208,2.33274 5.94733,6.94898 1.28664,1.3828 1.34909,1.59441 0.6707,2.27279 -0.49745,0.49746 -1.63158,0.74803 -3.38562,0.74803 -1.58699,0 -2.79003,0.23824 -3.02028,0.59811 -0.21048,0.32895 -0.4357,3.16116 -0.50049,6.29378 -0.0648,3.13263 -0.22827,5.80615 -0.36328,5.94116 -0.13501,0.13501 -0.24547,5.60109 -0.24547,12.14684 0,11.04229 0.0706,12.03976 0.97796,13.81834 0.53788,1.05433 1.01287,2.49914 1.05554,3.21069 0.10345,1.72508 -7.32591,24.02165 -8.00416,24.02165 -0.29192,0 -1.15081,-1.88402 -1.90865,-4.18672 z"
         id="path23"
         transform="scale(0.26458333)" /><path
         style="display:inline;fill:#f70000;fill-opacity:1;stroke:#000000;stroke-width:0;stroke-linecap:round;stroke-linejoin:round;stroke-dasharray:none;stroke-opacity:1"
         d="m 499.89448,575.29742 c -0.39688,-0.16014 -0.59811,-1.34529 -0.59811,-3.5226 0,-1.81962 -0.22863,-3.42257 -0.51326,-3.59848 -0.2823,-0.17447 -3.04085,-0.28688 -6.13012,-0.24981 -7.42385,0.0891 -7.5405,-0.0183 -6.20037,-5.70972 0.52671,-2.23691 1.16631,-4.28242 1.42132,-4.54559 0.25502,-0.26316 2.87556,-0.58614 5.82343,-0.71772 l 5.35976,-0.23924 0.13847,-3.91602 c 0.17637,-4.98825 0.69443,-5.17048 4.82847,-1.69842 1.67915,1.41028 3.55917,2.89579 4.17781,3.30114 0.98409,0.6448 5.4506,0.7458 35.70406,0.80742 l 34.57927,0.0704 8.06768,2.61127 c 7.57607,2.45214 9.17436,3.30524 8.13664,4.34296 -0.23671,0.23671 -4.21641,1.72645 -8.84378,3.31054 l -8.41339,2.88015 -15.2635,-0.0803 c -8.39492,-0.0441 -23.76851,-0.0164 -34.16354,0.0618 l -18.90006,0.14202 -2.39241,1.82804 c -1.31583,1.00542 -3.13443,2.59552 -4.04134,3.53355 -1.70031,1.75865 -1.77162,1.79431 -2.77703,1.38861 z"
         id="path24"
         transform="scale(0.26458333)" /><path
         style="display:inline;fill:#f70000;fill-opacity:1;stroke:#000000;stroke-width:0;stroke-linecap:round;stroke-linejoin:round;stroke-dasharray:none;stroke-opacity:1"
         d="m 393.58956,757.57662 c -1.14861,-3.10285 -2.46843,-6.50281 -2.93293,-7.55547 -1.90109,-4.30835 -3.22136,-8.08713 -3.01419,-8.62701 0.1211,-0.31558 0.72492,-0.80375 1.34182,-1.08483 1.03808,-0.47298 1.14463,-0.87887 1.43017,-5.44774 0.16969,-2.71518 0.24523,-16.20406 0.16786,-29.9753 -0.13662,-24.31861 -0.11395,-25.05816 0.78814,-25.71843 1.07685,-0.78818 8.57081,-0.95563 10.46902,-0.23393 l 1.17275,0.44588 -0.0216,30.00771 -0.0216,30.00771 1.27244,0.92692 c 0.69985,0.5098 1.27245,1.35605 1.27245,1.88056 0,0.88754 -1.54116,4.97454 -6.10575,16.1919 -2.63806,6.48293 -3.1421,6.41207 -5.81852,-0.81797 z"
         id="path25"
         transform="scale(0.26458333)" /><path
         style="display:inline;fill:#f70000;fill-opacity:1;stroke:#000000;stroke-width:0;stroke-linecap:round;stroke-linejoin:round;stroke-dasharray:none;stroke-opacity:1"
         d="m 288.54592,571.98768 -4.2853,-3.5506 -20.83502,-0.0754 c -11.45927,-0.0415 -21.158,-0.0424 -21.55275,-0.002 -0.39475,0.0403 -6.46705,0.0683 -13.494,0.0621 l -12.77628,-0.0112 -4.20985,-1.38764 c -14.43802,-4.75903 -15.10917,-5.35835 -8.51619,-7.60474 1.579,-0.538 5.03985,-1.71659 7.6908,-2.61909 l 4.81991,-1.6409 34.53811,-0.005 34.53811,-0.005 1.79147,-1.33938 c 0.98531,-0.73667 2.32976,-1.86571 2.98767,-2.50898 2.17901,-2.13053 3.18191,-2.60446 4.27426,-2.01985 0.86256,0.46163 0.98905,0.98085 0.98905,4.05993 v 3.53061 l 5.46397,0.1608 c 3.00519,0.0884 5.58418,0.28158 5.73109,0.42921 0.14692,0.14763 0.81228,2.14964 1.47858,4.44891 1.75467,6.05501 1.76104,6.04853 -5.93313,6.04853 -7.27036,0 -7.38796,0.0689 -6.91925,4.05691 0.24596,2.09277 0.16414,2.83601 -0.34793,3.16023 -0.36824,0.23316 -0.77719,0.41011 -0.90878,0.39323 -0.13158,-0.0169 -2.16762,-1.62847 -4.52454,-3.58129 z"
         id="path26"
         transform="scale(0.26458333)" /></g></g></svg>
